<?xml version="1.0" encoding="UTF-8"?>
<!DOCTYPE svg PUBLIC "-//W3C//DTD SVG 1.1//EN" "http://www.w3.org/Graphics/SVG/1.1/DTD/svg11.dtd">
<!-- Creator: CorelDRAW 2018 (64-Bit) -->
<svg xmlns="http://www.w3.org/2000/svg" xml:space="preserve" width="8.26772in" height="11.6929in" version="1.1" style="shape-rendering:geometricPrecision; text-rendering:geometricPrecision; image-rendering:optimizeQuality; fill-rule:evenodd; clip-rule:evenodd"
viewBox="0 0 8267.72 11692.91"
 xmlns:xlink="http://www.w3.org/1999/xlink">
 <defs>
  <style type="text/css">
   <![CDATA[
    .fil21 {fill:#0193DD}
    .fil55 {fill:#0196E1}
    .fil20 {fill:#0390D8}
    .fil49 {fill:#048DD3}
    .fil59 {fill:#0880BE}
    .fil57 {fill:#097BB7}
    .fil44 {fill:#0B73AA}
    .fil54 {fill:#0E628E}
    .fil39 {fill:#163C54}
    .fil19 {fill:#17374A}
    .fil68 {fill:#1B1B16}
    .fil14 {fill:#1B2B34}
    .fil5 {fill:#1C252C}
    .fil3 {fill:#1E1C1B}
    .fil1 {fill:#211A16}
    .fil65 {fill:#221D19}
    .fil52 {fill:#24211C}
    .fil41 {fill:#242C24}
    .fil10 {fill:#2B3E31}
    .fil29 {fill:#314D3B}
    .fil17 {fill:#322C2A}
    .fil4 {fill:#34312E}
    .fil7 {fill:#364537}
    .fil67 {fill:#377257}
    .fil22 {fill:#382924}
    .fil69 {fill:#393A36}
    .fil11 {fill:#3A563A}
    .fil81 {fill:#3A6D52}
    .fil87 {fill:#3B7D62}
    .fil58 {fill:#3C7659}
    .fil62 {fill:#407D5E}
    .fil36 {fill:#40805F}
    .fil71 {fill:#418462}
    .fil34 {fill:#428B66}
    .fil8 {fill:#448E68}
    .fil0 {fill:#45906A}
    .fil24 {fill:#45916B}
    .fil50 {fill:#49946E}
    .fil75 {fill:#4A4543}
    .fil48 {fill:#4C9671}
    .fil47 {fill:#514D4B}
    .fil28 {fill:#54514E}
    .fil51 {fill:#575553}
    .fil40 {fill:#5A5554}
    .fil35 {fill:#5E5B59}
    .fil38 {fill:#625C5C}
    .fil42 {fill:#64615E}
    .fil27 {fill:#656361}
    .fil26 {fill:#6C6867}
    .fil16 {fill:#726D6C}
    .fil25 {fill:#757372}
    .fil72 {fill:#7B7877}
    .fil56 {fill:#83807F}
    .fil53 {fill:#84B59C}
    .fil30 {fill:#874F40}
    .fil82 {fill:#888584}
    .fil66 {fill:#8CBAA3}
    .fil23 {fill:#8D5343}
    .fil85 {fill:#918D8D}
    .fil70 {fill:#938C0F}
    .fil73 {fill:#93BEA8}
    .fil76 {fill:#959391}
    .fil86 {fill:#968F90}
    .fil88 {fill:#9B9897}
    .fil79 {fill:#9BC3AF}
    .fil77 {fill:#A19E9D}
    .fil80 {fill:#A9A6A6}
    .fil64 {fill:#ADABAA}
    .fil83 {fill:#B1AEAD}
    .fil84 {fill:#B4B3B2}
    .fil78 {fill:#BDBBBA}
    .fil63 {fill:#C9C7C6}
    .fil74 {fill:#D5D4D3}
    .fil61 {fill:#D9D7D7}
    .fil12 {fill:#DA251B}
    .fil60 {fill:#DBD9D9}
    .fil37 {fill:#DEDDDD}
    .fil46 {fill:#E4E3E3}
    .fil43 {fill:#E4EAE7}
    .fil18 {fill:#E9F1ED}
    .fil2 {fill:#EAEAEA}
    .fil45 {fill:#EEEDED}
    .fil33 {fill:#F0EE04}
    .fil6 {fill:#F1F1F1}
    .fil31 {fill:#F2F5F3}
    .fil32 {fill:#F8F303}
    .fil9 {fill:#FAFAFA}
    .fil15 {fill:#FBFCFB}
    .fil13 {fill:#FDFDFD}
   ]]>
  </style>
 </defs>
 <g id="Layer_x0020_1">
  <metadata id="CorelCorpID_0Corel-Layer"/>
  <path class="fil0" d="M5691.59 5331.61l-61.03 -1.44 -36.83 230.36 146.96 -132.17c200.65,47.48 342.98,197.6 194.71,409.86 -95.53,18.38 -213.78,11.75 -293.38,-21.6l-83.37 -6.74 -35.14 188.04c59.73,-24.54 17.13,1.93 81.53,-37.24 7.64,-101.35 215.18,8.35 252.07,62.42 68.07,99.76 67.71,384.54 -172.46,319.24 -39.11,-10.63 -27,-9.83 -46.91,-25.54l-16.67 7.8c-84.09,-11.26 -99.43,-25.35 -167.48,-25.08 -41.48,74.29 -70.93,175.78 -74.54,259.57 110.44,-53.3 155.91,-109.61 298.11,-123.09 44.77,77.37 116.97,116.43 103.46,241.23 -11.44,105.62 -93.33,160.69 -147.37,215.76 -70.61,-16.15 -140.78,-45.68 -191.62,-76.81 -56.3,-34.47 -84.24,-86.93 -144.8,-86.71 86.83,102.54 159.39,159.89 153.58,366.13 126.22,-57.47 191.28,-185.78 389.09,-218.33l-28.19 93.79 -36.35 196.91c141.22,12.48 179.53,-37.67 273.64,-20.89 -29.92,161.45 -477.64,674.51 -615.98,734.26 -156.63,-50.26 -128.67,-149.72 -290.12,-72.65 -117.04,55.88 -195.16,86.83 -316.57,125.91 -579.73,186.57 -1351.5,153.92 -1898.23,-113.57 -304.98,-149.22 -161.43,263.73 -508.78,-98.78 -49.62,-51.79 -107.74,-113.53 -158.33,-177.65 -64.11,-81.24 -237.58,-288.86 -250.47,-407.51 116.7,2.95 115.23,47.64 260.24,30.29 -0.28,-171.04 -68.38,-144 -32.17,-281.93 0.92,-3.49 3.75,-8.94 4.62,-12.33l11.69 -109.33 94.34 -34.67c-86.41,-67.57 -208.77,-134.36 -203.99,-282.44 134.23,-48.03 229.52,-31.21 329.23,33.76l-28.14 -87.16c-191.67,-26.62 -324.25,-65.96 -316.98,-293.96 149.96,-15.15 124.44,-2.95 247.09,39.38l-36.02 -119.06c-136.43,-34.45 -176.14,-18.71 -231.25,-124.24 -58.95,-112.87 -59.98,-151.79 12.55,-237.68 -78.97,-35.19 -124.58,-148.65 -100.31,-277.88 128.34,-26.62 222.65,66.82 232.3,91.2 5.26,-152.2 -85.61,-55.18 -182.78,-186.33 -47.35,-63.92 -107.17,-265.16 17.33,-267.89 -53.56,-57.87 -148.54,-238.69 -11.23,-306.91 142.7,-70.89 -53.43,63.39 45.67,-20.06 -82.03,-66.6 -100.63,-158.95 -67.22,-281.7 126.83,-2.26 148.04,35.53 212.92,90.75 -43.1,-183.99 -88.5,-345.42 106.15,-407.85 73.89,66.15 121.91,173.13 68.88,303.28 67.53,31.58 69.41,-14.91 94.63,65.78 18.19,58.16 -2.18,107.75 -25.08,137.36 -11.43,71.39 -0.55,53.57 -44.67,96.49 118.62,75.21 73.12,199.91 4.07,302.65l-18.57 26.06c40.43,-25.23 27.3,-13.15 83.35,0.2 5.57,108.59 1.61,217.96 -68.69,272.22 6.26,3.06 16.52,6.42 37.07,13.35 60.32,20.32 8.66,-1.6 43.21,14.23 16.96,127.96 22.59,211.05 -63.62,297.49 152.78,6.39 115.73,119.96 89.48,240.54l65.44 62.74c58.8,63.53 55.66,154.13 40.08,251.48l28.87 19.82c90.45,74.83 49.73,39.67 63.75,87.24 56.58,111.11 36.08,139.83 11.78,262.16 113.16,-43.09 37.62,-50.86 162.98,-40.37 87.67,346.25 -97.11,381.86 -203.63,446.23 102.21,336.44 510.22,488.26 652.58,479.81 25.74,-245.26 140.37,-720.36 80.84,-935.24 -25.55,-92.24 -100.13,-100.44 -155.3,-201.4 -88.89,-162.68 -15.57,-86.23 -145.81,-186.69 -176.26,-135.97 -13.92,-153.64 -186.86,-336.84 -39.65,-41.99 -52.52,-58.41 -78.36,-111.98 -55.88,-115.89 -34.41,-184.18 50.12,-252.27 88.95,43.74 79.78,85.31 127.8,159.55 82.42,127.46 410.11,389.81 501.58,327.37 -152.11,-3.82 -379.08,-250.25 -456.78,-371.81 -525.91,-822.81 204.62,-1656.54 581.74,-1642.04 129.51,-98.97 522.06,-79.81 626.1,0.91 405.89,-10.48 1081.37,848.26 582.47,1637.85 -74.67,118.19 -310.81,370.14 -467.6,381.78 65.31,39.02 290.07,-116.45 349.67,-162.4 74.13,-57.16 201.42,-213.28 234.14,-333.25 176.16,34.03 8.14,50.93 175.07,69.21 17.99,-69.94 40.89,-50.96 80.61,-120.45 -116.97,-24.22 -153.58,-49.76 -130.8,-199.57 17.11,-112.52 88.48,-138.31 157.28,-177.49 -5.13,-5.46 -13.76,-19.17 -17.33,-14.28l-105.4 -80.84c-77.15,-140.49 37.42,-258.66 188.05,-322.9l35.05 -16.09c-59.2,-130.93 -187.86,-159.52 -70.41,-310.24 113.04,-145.07 230.85,-112.16 373.66,-24.37 28.56,207.67 -114.73,288.6 -113.91,470.56 54.97,-25.61 29.66,-18.13 64.96,-57.87 49.75,-56.02 105.97,-96.97 235.34,-35.09 106.72,51.04 141.1,152.78 117.49,303.93 -41.83,30.6 -108.75,42.22 -171.35,65.53 81.51,89.73 259.98,86.99 126.07,407.96 -108.8,7.7 -214.46,11.97 -292.65,-29.75zm279.03 -1628.57c-95.81,-68.24 -62.23,25.46 -125.41,-62.84 1.15,-0.91 27.96,-106.43 151.31,-19.3 15.53,10.96 230.75,252 -240.17,241.5 36.66,108.65 58.13,48.18 46.1,148.37 -92.11,1.22 -177.97,-127.91 -191.11,-213.75 150.79,-42.2 341.05,48.81 359.28,-93.98zm-3931.48 -86.83c76.01,-79.44 145.38,-120.57 223.06,-15.11l-54.19 49.62c-91.39,-5.52 -111.35,10.94 -126.23,93.15 174.45,15.01 176.76,-179.83 355.63,-3.19 39.84,83.72 -64.48,280.93 -205.06,234.4 -73.93,-24.47 -27.38,-7.6 -51.04,-41.61 73.68,-108.84 185.88,32.2 167.39,-165.54 -103.3,-6.71 -419.7,259.45 -309.57,-151.72zm3426.3 21.26c-38.42,33.2 61.8,59.67 -74.69,24.61 -42.72,-70.61 -40.36,-45.69 14.5,-105.57 83.07,-64.54 167.54,-226.98 222.59,-247.46 91.03,-33.86 13.57,-4.19 46.05,6.28l6.19 29.91c-5.72,53.4 -180.33,240.35 -214.65,292.23zm-416.19 -241.22c-15.03,-46.89 5.79,-68.31 30.35,-104.86l151.52 -228.38c19.49,-22.57 15.11,-15.97 33.95,-30.8 269.84,94.96 327.86,324.18 76.56,332.05l-5.14 204.14c-141.86,-0.96 -68.81,-146.93 -107.28,-268.86 -98.47,20.96 -27.15,-7.14 -92.18,66.65 -91.95,104.36 -81.38,32.88 -87.78,30.07zm-2328.03 37.48c-46.23,36.77 -43.71,-41.9 -1.61,99.07l-12.78 83.26c-67.9,3.19 -77.93,-11.36 -112.45,-38.56 -93.61,-24.5 -37.15,-23.03 -53.63,33.96l5.04 -13.06c40.09,52.19 75.17,63.04 37.91,126.18 -135.33,31.04 -43.46,8.02 -77.07,-24.59 -50.66,-113.07 -188.36,-187.59 -219.95,-311.17 130.76,-145.62 139.14,29.95 297.11,65.15 -21.67,-65.68 -52.63,-103.76 -73.54,-164.63 -32.74,-95.27 -32.94,-75.07 52.52,-130.61 75.56,22.43 106.7,92.92 157.24,155.7 52.43,65.15 118.81,107.24 113.08,196.54 -74.1,0.25 -78.3,-17.13 -111.85,-77.24zm307.24 -466.57c106.5,160.71 75.2,217.36 -81.94,280.43 17.89,101.72 62.61,115.42 35.19,178.72 -88.2,2.62 -47.72,32.96 -148.09,-161.62 -39.23,-76.05 -81.63,-122.55 -90.07,-220.9 119.97,-41.82 122.23,-99.81 284.91,-76.63zm1796.69 -119.89c93.46,11.89 256.22,58.52 273.26,143.53 -103.07,59.07 -118.61,-60.57 -236.41,-26.27 8.06,187.07 90.83,17.7 161.75,172.91 -32,18.93 31.13,36.8 -83.94,15.26 -76.8,-14.38 -123.67,-96.37 -157.41,26.64 77.22,130.86 189.13,14.16 182,167.58 -63.35,20.46 -222.63,-70.96 -305.56,-97.67l166.31 -401.98zm-304.35 109.17l110.32 34.36c8.01,77.15 8.43,100.81 -33.51,165.18 -121.43,115.52 -366.28,34.11 -357.49,-186.16 9.17,-229.41 279.48,-295.59 361.98,-151.15 43.06,36.46 18.61,-52.94 49.35,67.39 -55.94,57.63 -58.48,57.8 -108.99,-3.28 -214.37,-257.74 -308.1,385.3 -22.04,212.76 -8.7,-107.21 -32.33,1.31 -73.05,-104.74 24.22,-22.47 -12.47,-19.72 73.42,-34.36zm-1140.33 -12.72c-13.44,-16.66 -31.65,-21.52 -37.5,-83.22 -5.09,-53.73 1.69,-44.3 15.81,-76.61 93.13,-24.33 61.41,-36.92 121.23,41.11 32.41,69.39 96.14,137.66 156.76,169.66l-33.17 -244.47 69.39 -1.11c28.23,63.13 73.85,347.65 64.21,428.59 -103.53,1.05 -97.04,-19.8 -156.94,-93.3 -44.42,-54.51 -61.87,-83.06 -114.67,-114.81 4.31,69.17 13.81,75.72 25.91,143.75 14.57,81.91 27.81,74.26 -27.99,108.65 -68.7,-31.65 -79.98,-183.54 -83.05,-278.24zm530.59 -71.18c120.72,2.11 189.22,-45.98 234.97,55.42 -57.87,82.58 -112.96,61.54 -217.99,62.74l-3.29 84.02c83.56,3.68 166.87,-16.45 225.8,20.83 -17.38,86.12 -117.65,76.92 -305.59,58.69 -13.02,-75.61 -25.65,-309.43 -8.3,-391.2l13.93 -35.41c60.03,-17.15 214.82,-40.4 280.3,11.8 -15.63,44.56 47.62,57.17 -202.18,54.57l-17.64 78.54zm940.48 5892.17c22.47,-47.37 22.74,-42.35 59.5,-77.24 -257.56,31.89 -114.36,-6.58 -275.99,65.25 -115.67,51.41 -134.88,-12.16 -266.09,21.7 -159.93,41.28 -149.56,-19.57 -265.51,-4.45 -95.24,12.43 -45.33,23.94 -151.35,1.65 -93.66,-19.69 -79.51,-11.29 -174.09,-20.22 -96.11,-9.06 -52.99,-18.53 -123.9,-44.42 -125.61,-45.87 -35.55,55.3 -253.49,-40.36 -101.49,-44.55 -37.38,-15.49 -146.63,-20.16 -398.14,-17.02 -267.88,-584.38 75.66,-475.31 272.47,86.5 167.04,19.25 279.13,59.26 216.54,77.28 66.81,10.46 283.34,51.77l491.51 29.88c187.28,-10.7 361.11,-96.32 400.6,-98.59 205.47,-11.81 324.35,207.99 210.83,391.44 23.69,25.37 -13.81,11.68 35.43,7.02 438.1,-293.46 1066.57,-1020.07 1285.39,-1615.56 213.83,-581.91 8.78,-2481.15 111.67,-2821.93 71.53,-35.18 200.97,-19.24 292.96,-23.56 29.19,-93.73 25.31,-946.06 6.69,-1070.52 -383.56,-23.94 -236.93,63.37 -450.29,-137.84 -105.64,-99.62 -378.87,-53.89 -538.94,-51.92l-93.04 -311.8 -3231.64 -8.79 -94.5 319.82c-150.92,0.58 -436.39,-54.36 -539.63,50.62 -177.51,180.49 -74.97,130.5 -452.11,137.57l-9.86 1070c94.96,2.25 235.91,-16.18 300.61,17.62 53.48,91.71 20.25,1849.72 30.54,2135.06 26.16,726.02 132.48,945.22 596.35,1553.17 335.33,439.49 936.96,947.85 1500.19,1202.79 301.57,136.5 326.74,132.12 762.91,-99.83 75.94,-40.39 277.71,-176.39 343.74,-192.13z"/>
  <path class="fil1" d="M5496.34 8443.83c-25.61,44.44 -0.41,16.61 -40.36,58.46 -22.18,23.23 -37.34,31.74 -67.81,54 -97.47,59.87 -234.73,187.46 -342.65,268.33 -228.98,171.6 -501.01,330 -773.13,441.14 -222.5,90.87 -242.3,102.35 -474.26,7.71 -938.3,-382.81 -2200.64,-1560.77 -2309.38,-2548.72 -77.32,-702.4 25.27,-1839.75 -36.35,-2394.05l-306.22 -7.33c-18.86,-118.76 -18.91,-1330.81 3.8,-1423.25 101.83,-6.16 202.2,-0.85 303.7,-1.31 321.47,-1.46 100.02,-190.55 437.82,-189.12 95.12,0.4 191.44,5.92 285.91,-3.19 37.6,-65.52 73.15,-236.02 97.53,-315.19 442.12,1.43 3334.52,-29.8 3510.87,14.82 27.55,91.35 45.79,230.96 92.38,302.08 270.98,15.29 340.27,-41.44 477.7,53.9l77.65 82.57 22.5 49.61 457.08 7.24 1 1418.2 -310.5 10.17c-43.35,177.16 -10.65,1048.93 -12.14,1300.37 -6.02,1014.79 73.81,1324.52 -494,2132.45 -125.44,178.49 -473.67,602.93 -601.14,681.11zm-3373.51 -5851.05l-356.11 0c-106.66,0 -153.11,188.53 -251.38,188.53l-481.81 0 0 1654.91 314.23 0 -0.72 1467.09c0.2,141.77 22.26,232.56 21.68,397.28 -0.54,154.87 18.04,253.14 21.13,376.89 4.62,185.79 16.19,217.07 62.43,356.54 19.13,57.72 26.33,76.35 49.65,138.87 25.58,68.56 34.41,80.45 65.9,143.59l110.52 203.71c22.12,37.17 15.14,29.72 36.08,68.65 123.76,230.17 384.15,518.12 547.4,709.49l393.61 381.47c177.54,138.94 258.24,227.99 466.23,350.76 93.94,55.45 170.46,109 258.95,160.02 596.81,344.04 767.5,276.47 1280.7,4.63 44.99,-23.83 41.79,-21.02 80.2,-45.48l296.18 -185.63c43.15,-31.9 80.05,-66.28 128.35,-102.08 357.58,-265.08 688.24,-594.72 955.13,-951.15 39.58,-52.86 65.52,-91.28 103.39,-147.99 179.4,-268.64 407.01,-670.31 441.71,-982.76 16.96,-152.76 -1.54,-325.11 17.54,-464.27 37.6,-274.36 -16.88,-649.41 6.83,-935.85 24.01,-290.12 19.85,-622.11 19.85,-943.77l272.32 0 0 -1654.91 -439.91 0c-79.19,0 -139.68,-141.95 -223.06,-174.96 -99.04,-39.2 -268.7,-13.57 -384.44,-13.57 -8.79,-105.64 -54.05,-187.63 -62.84,-293.28 -232.55,-54.18 -3135.91,-20.95 -3624.04,-20.95 -86.76,0 -125.69,229.21 -125.69,314.23z"/>
  <path class="fil2" d="M1233.65 2993.86c270.63,-12.84 327.73,61.04 483.87,-115.89 119.65,-135.57 202.52,-59.09 527.56,-81.15l100.57 -313.23 3360.41 -0.17 66.17 229.39c80.56,218.17 377.34,-33.13 555.41,157.61 201,215.3 184.94,91.39 494.26,133.52 -3.4,257.72 32.74,1042.15 -13.25,1233.95 -382.33,29.92 -306.31,-165.08 -307.17,638.24 -0.35,321.18 0.24,642.46 -3.4,963.62 -8.28,730.48 28.36,1063.01 -298.79,1602.4 -444.71,733.2 -1201.83,1459.5 -2060.63,1778.75 -201.63,74.96 -503.55,-112.09 -668.48,-203.73 -202.97,-112.8 -392.49,-236.76 -574.85,-388.29 -478.24,-397.37 -1045.85,-1014.72 -1243.06,-1607.44 -170.58,-512.72 -63.33,-2040 -99.63,-2670.84 -9.38,-162.96 -41.44,-100.59 -314.49,-118.28l-4.5 -1238.45zm4154.52 5562.42c23.83,-37.99 2.41,-16.24 42.59,-57.46 17.2,-17.65 40.87,-34.61 65.59,-55 127.46,-78.18 475.7,-502.62 601.14,-681.11 567.81,-807.93 487.99,-1117.66 494,-2132.45 1.49,-251.44 -31.21,-1123.22 12.14,-1300.37l310.5 -10.17 -1 -1418.2 -457.08 -7.24 -22.5 -49.61c-85.82,-38.63 -36.98,-11.11 -77.65,-82.57 -137.43,-95.34 -206.72,-38.61 -477.7,-53.9 -46.59,-71.11 -64.83,-210.72 -92.38,-302.08 -176.35,-44.62 -3068.76,-13.39 -3510.87,-14.82 -24.38,79.17 -59.93,249.67 -97.53,315.19 -94.48,9.11 -190.8,3.59 -285.91,3.19 -337.8,-1.43 -116.35,187.67 -437.82,189.12 -101.51,0.46 -201.87,-4.85 -303.7,1.31 -22.71,92.44 -22.65,1304.49 -3.8,1423.25l306.22 7.33c61.61,554.3 -40.97,1691.65 36.35,2394.05 108.74,987.95 1371.07,2165.91 2309.38,2548.72 231.96,94.63 251.76,83.16 474.26,-7.71 272.13,-111.13 544.16,-269.54 773.13,-441.14 107.91,-80.87 245.18,-208.46 342.65,-268.33z"/>
  <path class="fil3" d="M5030.51 8611.93c-36.88,95.85 -6.49,43.42 -73.99,83.58 -38.47,22.89 -13.5,3.87 -52.72,30.25 -30.49,20.51 -1.44,8 -52.26,38.95 -66.03,15.74 -267.81,151.75 -343.74,192.13 -436.17,231.94 -461.34,236.32 -762.91,99.83 -563.23,-254.93 -1164.87,-763.3 -1500.19,-1202.79 -463.87,-607.94 -570.19,-827.14 -596.35,-1553.17 -10.29,-285.34 22.94,-2043.35 -30.54,-2135.06 -64.7,-33.8 -205.64,-15.37 -300.61,-17.62l9.86 -1070c377.14,-7.07 274.6,42.92 452.11,-137.57 103.25,-104.98 388.72,-50.04 539.63,-50.62l94.5 -319.82 3231.64 8.79 93.04 311.8c160.08,-1.97 433.31,-47.7 538.94,51.92 213.36,201.21 66.73,113.9 450.29,137.84 18.61,124.45 22.5,976.78 -6.69,1070.52 -92,4.31 -221.44,-11.63 -292.96,23.56 -102.89,340.78 102.15,2240.02 -111.67,2821.93 -218.82,595.49 -847.29,1322.1 -1285.39,1615.56zm-3792.36 -4379.61c273.05,17.69 305.11,-44.69 314.49,118.28 36.3,630.84 -70.95,2158.11 99.63,2670.84 197.2,592.73 764.81,1210.08 1243.06,1607.44 182.36,151.52 371.88,275.49 574.85,388.29 164.93,91.64 466.85,278.69 668.48,203.73 858.8,-319.25 1615.92,-1045.54 2060.63,-1778.75 327.15,-539.39 290.51,-871.92 298.79,-1602.4 3.64,-321.16 3.05,-642.44 3.4,-963.62 0.86,-803.32 -75.15,-608.32 307.17,-638.24 45.99,-191.8 9.85,-976.23 13.25,-1233.95 -309.32,-42.13 -293.25,81.78 -494.26,-133.52 -178.07,-190.74 -474.85,60.56 -555.41,-157.61l-66.17 -229.39 -3360.41 0.17 -100.57 313.23c-325.04,22.07 -407.91,-54.42 -527.56,81.15 -156.14,176.93 -213.24,103.04 -483.87,115.89l4.5 1238.45z"/>
  <path class="fil4" d="M5265.17 7264.12c34.17,-91.34 -3.09,-48.98 68.52,-98.85 41.5,-28.91 63.62,-38.26 107.48,-56.54l-30.57 46.62c-87.76,127.35 -45.25,84.02 -145.43,108.77zm-252.13 -20.78c-17.23,-122.7 -50.07,-276.8 -7.57,-402.05 63.5,79.09 245.89,180.03 352.8,223.67 -55.89,99.97 -228.74,181.42 -345.23,178.38zm352.72 -322.03l31.41 97.19c-52.86,-7.46 2.07,20 -62.87,-11.57 -58.43,-28.41 -26.4,-17.15 -48.88,-44.9 -56.01,-15.78 -86.72,-38.05 -128.02,-72.03 -51.05,-42.01 -86.59,-61.99 -98.27,-123.67 186.16,-21.93 257.05,30.64 306.63,154.98zm-0.04 -243.64c36.17,-71.27 124.15,-131.57 223.04,-159.28l-11.98 288.92c-134.76,-22.33 -124.73,-81.98 -211.06,-129.64zm267.49 112.5c-5.4,-89.59 -17.53,-190.09 29.88,-255.57 88.23,45.44 73.67,160.78 43.68,206.1 -42.85,64.8 -9.32,24.26 -73.56,49.46zm-564.5 -301.03c35.88,-48.42 195.64,-123.97 254.86,-140.46l-28.28 252.15c-84.44,4.36 -171.91,-62.9 -226.58,-111.69zm71.79 -121.15c-23.04,23.52 -5.74,19.29 -40.54,38.18 -44.26,24.02 -17.82,10.53 -68.93,19.54 -10.48,-133.2 -6.13,-28.09 27.99,-70.47 48.43,-96.39 106.88,-102.59 213.89,-100.48 -22.35,71.79 -57.21,94.89 -132.41,113.23zm153.24 -803.21c-29.37,41.17 -16.02,35.89 -70.57,43.39 -40.21,-74.75 -16.32,-77.46 41.48,-123.96 21.39,-59.43 49.02,-55.88 126.1,-70.01 30.3,28.94 16.73,-44.78 32.77,60.54 -66.35,14.48 -77.59,48.69 -129.78,90.04zm542.04 -536.42c110.63,16.64 162.15,103.22 134.34,238.4 -74.69,-16.14 -128.92,-154.26 -134.34,-238.4zm-615.85 204.93c-4.87,-135.78 38.59,-185.7 155.09,-213.83 -3.66,77.89 -14.23,85.06 -56.36,140.1 -46.66,60.95 -34.63,55.95 -98.73,73.73zm413.02 -271.52l100.55 8.39c-17.68,55.17 -50.57,94.15 -106.95,109.05l6.41 -117.44zm-65.69 110.72c-53.03,-34.14 -65.52,-51.38 -82.62,-107.01l81.54 -3.7 1.08 110.71zm93.87 -171.35c-18.35,-55.31 -12,-65.66 6.1,-125.58l58.69 -114.5c59.22,31.92 49.45,50.85 104.46,109.76 46.88,50.2 57.04,43.34 82.29,105.3 -69.49,27.63 -164.14,37.89 -251.54,25.02zm-347.04 -17.57c6.76,-31.05 129.89,-186.8 181.41,-222.22 46.31,57.72 75.65,141.9 79.35,241.42l-260.76 -19.19zm663.98 -149.8c24.78,50.09 12.62,-56.52 18.91,54.75 3.58,63.34 -3.75,22.15 -19.68,48.38 -66.67,-24.28 -31.84,-0.35 -61,-55.63 -56.76,-44.84 -89.45,-69.74 -111.74,-162.68 122.44,15.85 129.54,33.72 173.52,115.18zm-742.58 90.77c12.04,-143.3 47.15,-187.24 182.89,-206.51 -25.3,113.33 -97.49,174.94 -182.89,206.51zm423.19 -526.57c-0.55,61.84 -10.55,87.13 -34.83,144.72 -7.37,17.46 -16.17,38.06 -26.46,54.96 -28.18,46.31 -13.69,23.93 -39.05,49.14 -55.23,-20.26 -69.3,-32.2 -105.11,-68.53l-64.09 -101.85 269.54 -78.45zm-146.08 -16.35c-20.76,21.13 32.84,21.5 -65.67,36.15 -36.7,5.46 -44.75,-0.69 -74.75,-7.24 9.65,-75.44 -8.89,-32.83 40.78,-83.02 84.89,-17.26 116.94,-98.13 223.59,-0.77 -42.39,45.02 -56.62,45.66 -123.95,54.88zm-297.63 1190.96l-34.34 45.09c-68.06,103.68 -6.78,71.25 -85.75,112.48 -39.32,36.09 -154.05,180.65 -189.71,220.09 31.33,84.08 22.72,24.35 39.6,94.24l-44.15 46.41c-42.78,34.89 -151.58,123.5 -183.41,181.61 -45.79,83.59 -58.94,176.26 -168.7,216.28 -34.88,78.35 -16.74,30.22 -24.01,120.76 -4.17,51.91 -5.46,95.24 -5.9,147.19 -0.94,109.38 14.77,199.44 17.52,298.07 -14.63,140.67 66.58,322.73 56.36,507.56 36.08,82.48 6.06,38.85 81.17,28.2 30.15,-4.27 28.96,-23.98 100.15,-30.13 145.93,-7.16 313.13,-133.03 428.43,-203.4 50.76,27.96 5.19,-3.48 41.1,26.24 0.06,0.05 20.26,21.93 21.2,22.94l30.31 25.84c-0.09,1.54 -5.91,8.54 -8.72,12.91 52.46,-141.15 -8.29,-29.03 64.48,-71.04 18.2,-5.73 248.96,-219.54 343.66,-277.87 0,-62.06 30.83,-35.25 74.25,-25.27l42.82 0.26 28.19 -93.79c-197.81,32.55 -262.87,160.85 -389.09,218.33 5.81,-206.24 -66.74,-263.59 -153.58,-366.13 60.56,-0.22 88.5,52.24 144.8,86.71 50.84,31.13 121,60.66 191.62,76.81 54.04,-55.07 135.93,-110.14 147.37,-215.76 13.51,-124.8 -58.69,-163.85 -103.46,-241.23 -142.2,13.48 -187.68,69.79 -298.11,123.09 3.61,-83.79 33.05,-185.28 74.54,-259.57 68.05,-0.27 83.38,13.82 167.48,25.08 -5.16,-5.2 -11.24,-11.06 -16.24,-14.78 -4.86,-3.62 -10.19,-9.72 -16.29,-13.79 -5.87,-3.91 -10.12,-8.07 -16.78,-11.84 -35.26,-19.93 15.15,-4.29 -54.66,-20.41 -31.85,-7.35 -63.61,-4.44 -96.04,-5.07 -41.94,-89.27 -30.05,-99.62 -141.17,-88.79 23.38,40.54 20.23,24.4 6.11,37.86 -206.98,-5.54 -315.83,66.32 -308.91,278.96 45.15,32.89 68.56,63.21 124.81,101.72 74.93,51.3 121.15,38.24 140.85,110.17 -124.48,30.52 -175.77,-34.85 -274.11,61.11 -82.55,161.61 0.51,392.87 -16.32,576.18 -66.41,44.03 -199.65,103.98 -291.31,109.41 -28.59,-85.93 -66.91,-409.3 -85.33,-519.46 -85.29,-510.22 44.16,-441.3 184.69,-711.3 49.08,-94.31 98.98,-100.17 154.19,-159.72 89.08,-96.09 27.84,-134.52 86.44,-228.62 49.19,-78.98 97.01,-58.07 130.63,-189.03 48.41,29.96 71.26,69.32 172.8,94.98 100.09,25.3 147.54,6.47 196.22,65.67 -21.7,48.57 -0.82,23.43 -52.49,39.85l22.33 25.5c105.85,151.64 -119.93,149.8 108.64,185.92 57.46,-82.69 16.76,3.65 25.87,-88.46 -64.4,39.17 -21.8,12.7 -81.53,37.24l35.14 -188.04 83.37 6.74c-12.78,-8.99 -176.85,-41.02 -100.22,-113.75l-198.09 -17.22c-62.99,-23.7 -33.38,-10.77 -59.7,-34.43l97.47 -91.85c25.12,-32.57 8.02,-6.16 20.06,-37.52 5.95,-3.65 3.52,0.79 12.6,-17.16 0.8,-1.58 4.01,-7.53 4.63,-13.72 0.71,-7.22 3.06,-10.85 4.75,-16.22 50.85,-21.52 27.44,15.79 50.92,-53.96 -33.55,-54.72 -43.57,-62.6 -137.4,-62.84 49.02,-41.49 -3.84,-33.81 95.61,-41.8 3.91,4.28 5.99,11.88 7.94,15.47 4.13,7.63 34.37,125.06 138.59,68.22l-34.07 -113.84 -242.47 9.44c8.45,-55.06 118.54,-205.6 159,-246.41l100.68 160.02 -24.81 -102.37c72.22,2.18 33.31,-9.15 79.23,16.17 78.22,43.13 10.61,-37.65 28.55,38.53 1.57,6.65 -6.4,51.38 -6.91,58.77 -3.84,55.79 -30.13,-24.93 -1.26,64.1l68.76 -2.33 -78.37 -13.39c14.24,-126.78 65.44,-145.57 111.73,-228.86 40.91,32.2 18.71,-6.19 54.91,64.43l93.34 209.19 -119.77 -22.01c-33.21,44.85 54.76,26.09 -76.12,40.33 78.19,41.72 183.85,37.44 292.65,29.75 133.92,-320.97 -44.56,-318.23 -126.07,-407.96 62.6,-23.31 129.53,-34.93 171.35,-65.53 23.61,-151.14 -10.77,-252.89 -117.49,-303.93 -129.37,-61.87 -185.59,-20.93 -235.34,35.09 -35.3,39.75 -9.99,32.26 -64.96,57.87 -0.82,-181.96 142.47,-262.89 113.91,-470.56 -142.8,-87.78 -260.62,-120.7 -373.66,24.37 -117.44,150.72 11.21,179.31 70.41,310.24l-35.05 16.09c-150.63,64.24 -265.2,182.41 -188.05,322.9l105.4 80.84c3.57,-4.89 12.2,8.83 17.33,14.28 -68.8,39.18 -140.17,64.97 -157.28,177.49 -22.78,149.81 13.82,175.35 130.8,199.57 -39.72,69.49 -62.62,50.5 -80.61,120.45z"/>
  <path class="fil5" d="M4320.4 5861.06c21.83,-65.65 85.61,-129.52 148.63,-168.95l109.84 57.83c-46.19,81.06 -156.03,121 -258.47,111.13zm-852.62 -103.94c33.3,-25.42 66.78,-49.83 121.42,-64.51 45.28,37.91 123.18,112.7 144.49,165.87 -118.99,18.39 -215.63,-45.72 -265.91,-101.36zm480.17 -409.99c36.02,19 20.15,9.25 45,28.89 3.48,2.76 9.37,7.94 12.75,10.74l23.42 21.99c4.02,-125.81 -13.55,4.57 44.07,-50.69l204.94 -69.87 -36.93 229.36 -63.23 112.63c26.16,19.92 49.13,7.22 72.71,9.85 33.62,-8.9 8.83,-18.7 65.87,-8.35 86.02,15.61 59.52,31.93 68.55,40.5 -36.87,62.11 -99.65,93.57 -125.67,149.57l-55.03 43.6c21.89,13.96 58.22,23.86 42.17,79.06 -68.03,12.65 -268.66,39.27 -344.84,14.74 -58.84,-18.94 -23.28,-0.2 -61.05,-33.16l-19.02 6.56 -36.13 -115.73c-29.14,-51.88 -72.21,-63.2 -117.98,-144.64 42.97,-37.96 30.03,-32.04 110.19,-46.23 27.74,20.13 11.27,1.28 33.62,28.33 71.65,-42.56 5.44,53.39 57.42,-40.68l-43.61 -76.8 -59.27 -238.11 182.04 48.43zm-795.5 31.77l204.11 -64.4c37.5,51.96 163.48,281.91 175.52,315.78l-127.47 90.89c-71.29,-43.89 -267.1,-225.95 -252.16,-342.27zm1296.92 227.78c-68.57,-10.89 -121.91,-25.67 -165.43,-60.2l78.33 -275.97 258.89 16.33c-25.46,123.85 -110.87,230.43 -171.78,319.84zm-1013.93 -290.62c19.31,-15.73 13.53,-12.21 48.56,-27.44 79.87,-34.72 130.28,-33.45 209.93,-18.47 25.63,92.26 70.51,214.59 59.26,297.28l-141.77 39.89c-73.06,-77.97 -132.7,-178.43 -175.98,-291.26zm-410.66 -374.46l251.35 -4.9 58.52 312.86 -226.03 79.5c-61.05,-85.17 -90.93,-265.93 -83.83,-387.46zm333.98 -7.52c43.46,21.18 50.57,-27.41 46.22,87.06 -1.45,38.09 -16.2,71.1 -26.31,105.09 -37.33,-51.22 -49.59,-124.21 -19.91,-192.15zm17.31 -242.72c18.66,56.26 67.89,167.26 -17.31,191.02 -36.49,-57.88 -15.37,-145.81 17.31,-191.02zm37.8 -129.43c143.29,-115.46 401.82,-115.95 529.31,43.31 79.4,99.18 56.78,552.76 41.13,707.96 -78.61,-22.17 -158.02,-68.86 -236.3,-87.74 -104.28,-25.14 -218.48,-31.72 -308.37,-53.89 2.25,-105.85 15.26,-211.1 10.93,-317.35 -4.3,-105.3 -30.23,-182.9 -36.7,-292.29zm-125.42 290.71c-76.44,61.36 -56.06,41.01 -266.2,30.46 -26.11,-91.07 -19.19,-62.85 -2.04,-154.48 1.35,-7.24 14.19,-72.67 15.06,-75.29 27.37,-82.21 7.23,-25.01 33.56,-55.85l20.89 -94.52c80.98,-5.93 171.37,32.8 240.33,64.25l-41.59 285.42zm-142.98 -414.3c4.66,-77.35 -9.76,-36.71 40.99,-112.57 51.91,-77.6 128.84,-175.18 217.53,-228.72l142.3 87.81c-7.49,24.7 -159.52,272.27 -190.18,319.23l-210.64 -65.76zm444.66 1454.01c103.12,21.86 168.82,55.89 300.74,75.48 128.23,19.06 249.58,-1.59 370.3,-8.89l24 7.24c4.75,-4.12 12.28,-15.88 15.1,-11.3l61.87 -34.23c78.76,-29.04 23.15,-9.5 93.93,-21.61 156.78,-11.64 392.93,-263.59 467.6,-381.78 498.89,-789.59 -176.58,-1648.34 -582.47,-1637.85 -175.1,-19.43 -77.38,-1.62 -81.56,33.02 15.82,13.11 61.24,-6.35 142.52,21.16l37.01 23.58c40.35,36.33 106.97,39.43 139.52,116.45 20.96,37.37 -17.92,31.02 37.77,19.74 85.14,26.75 119.72,70.85 179.67,141.48 82.56,97.32 106.72,118.06 113.3,202.44l-226.85 70.43c-7.06,-5 -16.21,-11.81 -21.41,-14.67l-33.52 -14.76c-1.85,-4.88 -8.15,1.32 -11.93,-0.04l-0.16 59.42 3.33 -7.28c57.61,60.34 24.11,63.79 41.88,136.85 46.8,-34.31 47.12,-78.88 68.57,-114.15l218.9 -61.06c63.67,109.22 70.97,243.17 88.39,372.1 -19.04,40.06 5.36,16.39 -45.98,37.81 -93.32,38.93 -176.8,27.04 -223.26,-43.13l-66.27 31.62 -52.56 -21.2c-91.35,38.19 -46.32,-53.61 -35.87,30.46 9,72.4 -62.13,4.52 32.93,45.84l57.07 -19.92 75.96 25.19 250.42 -12.64c5.89,154.31 -29.97,240.67 -65.01,370.86l-113.45 6.95 -128.52 -39.19 93.46 67.35c5.18,3.09 62.59,22.46 96.66,55.74 -42.48,119.93 -187,284.19 -275.59,315.45l-123.73 -80.32c45.63,-102.02 144.65,-197.82 151.86,-305.9l54.25 -54.92c-55.45,-87.38 -21.43,-7.78 -24.76,-100.8 -39.21,25.75 -20.83,14.28 -37.65,34.51 -2.99,3.59 -15.67,25.17 -19.97,30.67 -0.12,-1.8 9.87,-50.47 14.1,-67.44 -71.66,28.4 -217.46,67.96 -296.28,52.39 -143.93,-4.67 -182.69,62 -302.78,72.15l7.67 -644.8c46.77,-67.52 14.18,-16.72 39.6,-77.35l-131.15 0.69 -29.85 -36.38c-47.2,-72.82 -120.83,-61.44 -141.02,-122.63 -56.98,-18.1 -27.56,19.13 -51.97,-34.59l-30.85 37.73 -257.18 46.42c25.54,-84.63 37.5,-85.42 87.11,-157.59 40.38,-58.75 38.27,-89.09 123.91,-86.17 20.41,-28.85 -4.25,-30.36 55.86,-44.5l-35.4 -10.2 -134.91 -37.81c-18.4,-23.65 -56.21,-52.3 -81.3,-69.29 43.52,-61.1 97.68,-64.89 145.69,-104.95 49.66,-55.07 90.24,-24.29 129.26,-35.33 73,-20.66 63.45,-46.62 71.37,-59.65l-103.39 19.26c-377.12,-14.51 -1107.65,819.22 -581.74,1642.04 77.7,121.56 304.67,367.99 456.78,371.81z"/>
  <path class="fil6" d="M4423.52 7892.25c-10.35,-85.73 -7.95,-164.18 45.52,-223.3 70.06,26.19 119.45,106.5 138.55,191.1 -124.89,-39.02 -83.97,-21.56 -184.06,32.2zm-79.38 -146.32c2.8,93.86 -17.57,45.62 19.44,146.57 -110,-3.74 -31.02,-25.29 -112,-47.97 -32.52,108.74 14.73,31 -69.38,60.61 -13.16,-73.13 -23.84,-117.24 -5.72,-200.13 138.98,-36.11 129.07,-14.5 167.67,40.93zm-810.63 -41.9c29.96,-41.29 -21.27,-30.58 63.77,-40.43l37.36 157.06 -9.93 71.81 -78.09 -64.46 -101.86 21.09c19.92,-67.37 46.63,-98.94 88.76,-145.08zm539.2 138.6l16.83 -4.34c19.33,17.73 42.32,-30.55 38.96,54.79 -1.99,50.73 -8.25,22.06 -36.54,35.48 -73.5,-24.11 -16.29,5.45 -38.98,-50.01l-3.56 14.02 -83.13 42.79c-4.5,7.13 -15.08,-1.27 -21.3,-1.18 -6.33,0.09 -14,0.49 -21.72,0.53l-112.55 -27.08c-2.54,-38.55 13.98,-0.35 -10.51,-60.16 -34.98,10.36 -30.34,11.19 -48.93,21.45 -5.12,2.83 -44.91,31.34 -54.91,33.53l16.52 -201.87c76.8,31.15 51.22,40.85 76.37,29.71 11.94,-23.89 -42.99,-73.19 90.06,-50.34 1.55,0.27 119.11,36.89 120.9,37.56l0.13 31.74c38.88,-22.69 46.24,-30.28 96.47,-47.71 -10.28,103.72 -22.32,19.12 -24.12,141.1zm557.27 -147.73c2.27,-60.06 1.29,-34.31 27.6,-64.31 40.61,20.66 29.27,3.57 41.19,41.83l32.63 5.16 30.91 -93.96c56.97,8.24 21.34,-44.48 65.61,35.78 6.78,12.31 11.38,65.79 12.87,85.25 25.89,26.85 21.11,-44.07 33.75,70.35l-95.61 20.86 -93.52 18.2c-1.48,-3.76 -7.52,-1.32 -18.46,0.35l-36.97 -119.5zm-1397.88 93.03c-3.17,-70.37 21.93,-133.87 43.59,-188.35 93.35,1.75 79.36,4.88 146.22,39.39 -2.04,138.34 -27.91,252.42 -189.81,148.96zm1697.91 -47.9l-11.52 -217.46c67.76,-0.09 95.4,31.65 116.26,78.31 48.26,26.58 33.74,-2.82 66.26,61.35 -21.81,11.95 -14.13,6.12 -48.53,15.22 -108.83,28.81 -36.69,7.39 -122.48,62.57zm-1821.22 -39.93c94,37.25 15.57,-7.46 49.11,52.24 -79.85,-4.63 -74.89,-12.08 -136.37,-48.21 -1.31,-85.46 27.04,-128.24 62.29,-188.59 77.57,1.64 80.53,8.1 139.26,50.9l-5.23 24.95c-24.72,46.53 -19,20.81 -27.23,84.4 -80.76,10.42 -52.11,-14.89 -81.82,24.3zm-220.52 -296.61c5.03,4.78 10.04,12.07 13.66,15.69l24.93 26.31c32.67,24.88 73.69,18.45 102.31,51.57l-89.35 158.62c-59.47,-29.79 -36.85,-10.71 -43.52,-97.03 -81.76,13.98 -43.35,22.7 -99.6,-5.93l91.56 -149.24zm2206.97 33.44c26.37,-32.54 -27.37,-11.35 44.15,-40.22l16.89 38.57c1.35,4.96 1.2,11.73 2.57,17.12 6.88,27.08 -4.23,8.47 12.26,51.29 27.66,71.82 43.22,0.91 29.8,111.31 -72.7,-26.37 -60.65,-56.49 -113.73,-112.83 -56.81,-8 -30.59,-4.57 -55.3,-31.04l63.37 -34.21zm-2423.45 183.29c144,44.72 493.29,349.91 1231.26,375.65 285.97,9.97 481.43,-11.02 742.15,-72.47 107.04,-25.23 200.76,-52.05 307.39,-93.97 96.87,-38.08 208.72,-111.2 288.85,-115.8 20.28,-23.23 9.12,-15.43 35.93,-37.8 41.39,-34.53 47.4,-17.29 105.5,-79.2l-118.32 -290.43c-0.94,-1.01 -21.15,-22.89 -21.2,-22.94 -35.91,-29.72 9.66,1.72 -41.1,-26.24 -115.29,70.37 -282.5,196.24 -428.43,203.4 -34.66,43.14 38.66,1.31 -60.59,43.89 -128.75,55.25 -490.05,100.72 -621.02,104.28 -207.29,5.64 -572.15,-19.67 -724.65,-104.09 -269.39,-60.31 -419.75,-204.39 -532.47,-247.03 -56.86,66.83 -153.31,289.8 -163.3,362.75z"/>
  <path class="fil7" d="M2510.26 7020.85c57.27,-10.48 139.76,-35.29 160.6,-32.08 10.18,5.63 107.78,162.1 105.54,262.64 -120.3,-48.04 -188.85,-188.46 -266.15,-230.56zm262.15 -738.87l0.11 228.92c-12.65,57 5.67,21.76 -37.13,62.04 4.2,1.81 11.67,-1.7 13.3,3.41 25.77,81.09 20.38,5.54 24.81,7.27l32.39 16.29c65.19,-22.26 28.21,-14.94 92.34,-22.76 14.34,106.56 -6.15,241.83 -98.54,277.67 -101.43,39.35 -65.41,-3.38 -80.62,-9.94l16.76 -146.14c-59.36,43.83 -28.61,5.68 -45.48,82.64 -10.56,48.21 1.7,63.8 11.25,96.42 37.65,55.17 21.08,80.72 -13.16,80.94l-62.8 -92.42c-5.2,50.34 30.22,82.5 -82.13,91.93 -48.21,4.05 -101.66,-17.47 -148.24,-29.52l82.58 100.37 -85.33 -37.09 70.93 79.32c30.36,27.58 41.08,33.57 68.48,56.89 27.82,23.68 78.65,76.93 115.38,94.21 31.31,36.67 43.47,50.49 72.07,84.81 -35.54,217.92 -120.52,173.95 -130.05,467.98l-80.38 -27.99c11.02,65.46 -22.74,26.87 40.98,45.69 139.9,41.31 39.81,7.46 59.78,-20.31 28.56,-39.73 15.77,-104.78 15.77,-152.26l46.29 -0.11c9.98,-72.95 106.43,-295.92 163.3,-362.75 112.72,42.64 263.08,186.72 532.47,247.03l95.72 12.21c-31.5,-104.01 -39.7,-124 9.25,-214.61 36.57,-213.77 117.64,-607.44 58.59,-822.47 -7.19,-64.79 0.44,-41.32 -22.39,-89.47 -81.04,-25.63 -118.24,-96.72 -145.29,-155.89 -27.67,-60.54 -19.38,-64.07 -60.36,-109.5 -36.06,-39.99 -47.61,-26.86 -76.96,-80.99 -63.63,-31.25 -58.42,-23.42 -82.87,-99.2l-31.45 -21.06c49.93,-55.06 17.14,-7.46 34.78,-69.35 -59.5,-88.8 -261.05,-232.65 -185.8,-360.72 98.48,68.81 112.5,271.73 502.08,451.3 416.7,192.07 404.56,123.49 416.26,551.97 50.69,80.08 45.76,162.17 45.71,264.74 -0.05,95.61 -5.3,177.42 -12.29,272.32 -12.05,163.77 33.72,405.28 -14.26,538.8l249.6 7.78 -14.49 -944.61c2.13,-70.7 17.63,-111.19 21.55,-167.59 12.37,-178.23 -71.69,-71.79 27.57,-259.22 87.04,-121.11 145.27,-165 303.7,-224.83 152.2,-57.48 226.23,-104.76 338.21,-175.43 17.79,-23.11 5.29,-11.8 32.85,-40.5 4.35,-4.54 17.45,-16.62 22.22,-20.81 26.11,-22.92 41.61,-31.07 67.09,-49.23 12.87,-21.06 42.23,-66.02 69.44,-107.2 42.16,-63.76 24.88,-60.37 90.44,-91.41l-11.59 130.6c78.97,-41.23 17.69,-8.8 85.75,-112.48l34.34 -45.09c-166.93,-18.28 1.09,-35.18 -175.07,-69.21 -32.72,119.96 -160.01,276.09 -234.14,333.25 -59.6,45.95 -284.36,201.41 -349.67,162.4 -70.78,12.11 -15.17,-7.43 -93.93,21.61l-61.87 34.23c-2.82,-4.58 -10.35,7.18 -15.1,11.3 100.01,-0.14 36.3,-4.04 59.3,19.83 -90.58,20.11 -202.5,148.66 -229.48,233.25 -46.89,147.04 25.79,1057.92 -33.03,1307.78l-115.82 3.18c-1.56,-145.61 -19.04,-268.59 -14.63,-412.62 11.43,-373.61 19.77,-287.5 -11,-639.6 -9.35,-106.85 60.29,-180.07 -50.05,-352.52 -48.33,-75.56 -65.74,-55.08 -124.28,-137.53 124.09,4.35 390.01,63.79 495,-29.02 -120.72,7.3 -242.07,27.94 -370.3,8.89 -131.91,-19.6 -197.61,-53.62 -300.74,-75.48 -91.47,62.44 -419.16,-199.92 -501.58,-327.37 -48.02,-74.24 -38.85,-115.81 -127.8,-159.55 -84.52,68.09 -106,136.38 -50.12,252.27 25.84,53.57 38.71,69.99 78.36,111.98 172.94,183.2 10.59,200.87 186.86,336.84 130.24,100.46 56.92,24.02 145.81,186.69 55.17,100.95 129.74,109.15 155.3,201.4 59.53,214.87 -55.1,689.97 -80.84,935.24 -142.37,8.45 -550.37,-143.37 -652.58,-479.81 106.52,-64.37 291.3,-99.98 203.63,-446.23 -125.36,-10.49 -49.82,-2.72 -162.98,40.37 24.3,-122.33 44.8,-151.05 -11.78,-262.16z"/>
  <path class="fil8" d="M5279.9 6169.92c-84.28,1.39 -103.12,-48.87 -195.2,-85.76l6.42 -114.71c29.43,-76.21 71.76,-133.39 142.81,-162.77 60.63,-25.08 121.59,-29.85 182.61,1.34 38.08,19.47 25.93,23.27 31.66,29.69 51.67,-16.43 30.78,8.72 52.49,-39.85 -48.68,-59.2 -96.14,-40.37 -196.22,-65.67 -101.54,-25.67 -124.39,-65.02 -172.8,-94.98 -33.62,130.96 -81.44,110.05 -130.63,189.03 -58.59,94.09 2.65,132.53 -86.44,228.62 -55.21,59.56 -105.11,65.41 -154.19,159.72 -140.53,270 -269.98,201.08 -184.69,711.3 18.42,110.15 56.74,433.53 85.33,519.46 91.67,-5.44 224.91,-65.38 291.31,-109.41 16.83,-183.31 -66.23,-414.56 16.32,-576.18 98.34,-95.96 149.63,-30.59 274.11,-61.11 -19.71,-71.93 -65.92,-58.87 -140.85,-110.17 -56.25,-38.51 -79.67,-68.83 -124.81,-101.72 -6.92,-212.64 101.92,-284.5 308.91,-278.96 14.12,-13.46 17.27,2.69 -6.11,-37.86z"/>
  <path class="fil9" d="M3146.56 5854.19l55.82 38.89c118.84,88.69 625.06,320.03 533.47,485.96 -54.99,-35.21 -222.64,-304.2 -479.54,-366.76l-49.44 -15.2 19.24 46.72c29.35,54.13 40.9,41 76.96,80.99 40.98,45.44 32.7,48.97 60.36,109.5 27.05,59.17 64.24,130.26 145.29,155.89 310.01,63.08 166.47,263.96 172.98,505.61l-71.54 255.48c-50.71,-74.41 -31.85,-166.51 -3.08,-239.34 15.74,-119.85 112.47,-441.38 -75.98,-432.27 59.06,215.03 -22.02,608.7 -58.59,822.47l-8.8 166.76c130.5,36.87 281.37,57.02 421.65,61.76l-6.26 -1033.9c-11.7,-428.48 0.44,-359.89 -416.26,-551.97 -389.59,-179.57 -403.6,-382.49 -502.08,-451.3 -75.25,128.07 126.3,271.92 185.8,360.72z"/>
  <path class="fil9" d="M4946.57 5698.17c-38.39,46.63 -71.83,77.61 -122.17,110.54 -111.98,70.66 -186.01,117.94 -338.21,175.43 -158.43,59.84 -216.67,103.73 -303.7,224.83l-16.29 1323.52c128.67,-6.01 310.3,-29.75 426.26,-70.13 10.22,-184.83 -70.99,-366.89 -56.36,-507.56 -3.17,-5 -7.02,-11.53 -8.78,-15.45 -1.77,-3.9 -6.18,-10.81 -8.16,-15.7 -19.71,-48.76 3.03,18.85 -12.03,-33.94l-17.64 -169.47c-2.48,-88.65 9.53,-174.43 20.29,-250.49 -136.7,26.99 -105.48,166.76 -88.12,302.16l43.15 284.3c-4.47,51.01 -2.96,24.4 -14.85,56.42l-49.83 -37.42c-67.61,-373.75 -124.32,-630.89 148.35,-686.41 109.76,-40.02 122.91,-132.68 168.7,-216.28 31.83,-58.11 140.64,-146.72 183.41,-181.61l6.91 -64.51c-99.51,61.82 -193.62,111.88 -312.36,186.96 -88.88,56.21 -215.26,146.95 -236.74,247.87 -46.46,39.57 59.8,54.31 -56.96,29.39 -6.14,-13.44 -36.5,7.48 -7.2,-71.71 17.1,-46.2 18.88,-30.57 43.38,-60.09 95.54,-79.26 123.3,-142.56 267.71,-221.03 119.65,-65.02 175.05,-99.94 299.83,-187.53 35.66,-39.44 150.39,-184.01 189.71,-220.09l11.59 -130.6c-65.56,31.04 -48.28,27.65 -90.44,91.41 -27.22,41.17 -56.57,86.13 -69.44,107.2z"/>
  <path class="fil10" d="M2641.94 7677.26c65.29,11.23 70.74,19.14 110.04,43.31 -37.43,63.22 -27.41,54.98 -110.83,74.13l0.79 -117.44zm-73.89 -985.81l15.85 85.62 -103.38 -55.14 87.54 -30.48zm69.33 84.16c-37.31,-128.74 -10.88,-92.97 86.38,-156.96 -39.97,68.3 -18.19,87.94 -86.38,156.96zm-420.75 -296.64c132.06,-15.99 291.02,46.11 298.99,173.69 -146.91,46.67 -300.09,-34.85 -298.99,-173.69zm384.71 118.75c-33.82,-142.04 -13.3,-270.64 108.05,-305.25 42.93,65.88 50.83,150.5 13.23,229.46 -24.28,50.99 -64.17,85.61 -121.28,75.79zm-36.38 -267.94c-8.43,101.11 -0.25,54.8 -44.11,77.59 -37.32,-66.33 -47.83,-57.26 44.11,-77.59zm24.56 -372.4c109.9,128.87 20.97,243.69 -43.09,328.03l-58.34 -15.89c-79.8,-107.16 -30.2,-124.19 -51.02,-217.98 -57.61,24.39 -68.65,-6.66 -58.27,176.94l37.44 30.34 29.73 134.45 28.14 87.16c-99.71,-64.96 -195,-81.78 -329.23,-33.76 -4.78,148.08 117.57,214.87 203.99,282.44l-94.34 34.67 -11.69 109.33c-0.87,3.39 -3.7,8.84 -4.62,12.33 -36.21,137.93 31.9,110.88 32.17,281.93 -145.01,17.35 -143.54,-27.33 -260.24,-30.29 12.89,118.65 186.36,326.26 250.47,407.51 50.59,64.12 108.71,125.86 158.33,177.65 347.35,362.51 203.8,-50.43 508.78,98.78 546.73,267.49 1318.5,300.15 1898.23,113.57 121.41,-39.07 199.53,-70.03 316.57,-125.91 161.46,-77.07 133.49,22.39 290.12,72.65 138.33,-59.76 586.06,-572.81 615.98,-734.26 -94.11,-16.78 -132.42,33.37 -273.64,20.89l36.35 -196.91 -42.82 -0.26c-8.74,34.78 -4.39,20.74 -17.44,50.57 -1.68,3.85 -8.28,18.99 -9.65,15.73 -1.41,-3.34 -7.31,10.28 -10.81,15.53l13.58 160.48c99.06,16.33 148.96,-5.93 200.48,34.02l-64.54 56.7c-37.76,121.71 -329.65,426.81 -416.21,487.24 -13.34,7.08 -41.59,21.52 -55.9,22.16 -34.65,1.53 0.1,62.52 -39.13,-13.25 -4.54,-8.77 -14.91,-6.92 -19.93,-13.08l-46.59 -26.13 -36.73 -34.8c-2.15,-1.76 -10.43,-1.16 -12.07,-7.07 -1.54,-5.59 -8.11,-3.45 -12.15,-5.22 -80.13,4.6 -191.98,77.72 -288.85,115.8 -106.63,41.92 -200.34,68.74 -307.39,93.97 -260.72,61.44 -456.18,82.44 -742.15,72.47 -737.97,-25.74 -1087.26,-330.93 -1231.26,-375.65l-46.29 0.11c0,47.48 12.79,112.54 -15.77,152.26 -19.97,27.77 80.12,61.62 -59.78,20.31 -63.72,-18.82 -29.96,19.77 -40.98,-45.69 -22.05,-53.57 -290.23,-315.07 -399.46,-518.83l201.38 -9.75c22.36,-88.09 21.26,-159.27 -15.61,-238.08l64.26 -0.97c-3.33,-6.14 -7.03,-14.33 -9.68,-18.56l2.77 -61.63c-1.83,-3.82 -27.05,-58.07 -28.55,-62.94 -9.65,-31.17 -4.48,-1.91 -4.19,-42.09 158.24,-28.06 203.75,20.52 305.61,70.63 -9.94,-58.41 -10.11,-33.56 0.1,-61.56 89.66,18.81 46.41,-42.3 76.01,74.32 -9.55,-32.62 -21.81,-48.21 -11.25,-96.42 16.87,-76.96 -13.89,-38.81 45.48,-82.64l70.06 -98.82 -32.39 -16.29c-4.43,-1.74 0.96,73.81 -24.81,-7.27 -1.63,-5.11 -9.1,-1.6 -13.3,-3.41 42.8,-40.28 24.48,-5.04 37.13,-62.04l-0.11 -228.92c-14.02,-47.57 26.7,-12.42 -63.75,-87.24l-28.87 -19.82c15.58,-97.35 18.72,-187.95 -40.08,-251.48 -76.37,-57.46 6,-27.91 -91.21,-37.15 32.98,65.07 -8.15,43.24 41.03,71.1z"/>
  <path class="fil10" d="M4029.12 8615.21l56.17 91.01c-82.35,25.62 -52.07,28.81 -131.04,-2.72l74.87 -88.28zm-272.33 -66.2c7.38,11.63 29.33,44.29 33.53,67.36 11.73,64.56 0.41,42.51 -12.59,72.12l-83.31 -4.6c28.44,-119.65 12.79,-43.28 62.37,-134.88zm379.63 112.9c-69.75,-93.72 -44.15,-154.83 3.78,-239.37 88.12,59.8 90.64,178.25 -3.78,239.37zm290.72 -14.47c-51.12,-20.49 -65.62,-34.8 -70.41,-105.96 -8.92,-132.41 48.46,-119.2 49.46,-119.99 59.23,68.81 83.17,135.78 20.94,225.94zm-544.65 5.28c-84.7,-96.97 -52.64,-206.02 41.9,-265.07 18.04,16.9 21.1,-16.93 48.95,63.92 16.89,49.03 15.08,167.09 -90.85,201.15zm-257.1 -60.37c-23.95,-101.37 -25.77,-175.61 71.23,-220.81 9.81,52.36 22.84,94.91 5.21,149.13 -20.56,63.25 -35.6,54.27 -76.44,71.69zm1074.09 8.83c-18.37,-5.95 -52.42,0.83 -75.82,-87.7 -15.57,-58.91 -4.16,-98.1 12.11,-137.95 69.23,46.13 125.98,126.7 63.7,225.65zm-1342.18 -59.48c-23.8,-92.3 -33.9,-174.36 64.33,-206.47 22.96,58.04 25.44,66.88 4.96,129.5 -19.07,58.33 -14.89,52.26 -69.3,76.97zm860.41 140.57c53.58,-203.2 61.85,-1.86 1.81,-312l110.03 2.69c1.5,48.22 -26.72,101.96 -25.57,168.81 1.68,98.23 33.18,99.78 63.94,171.89 -35.69,11.29 -172.46,53.04 -150.2,-31.39zm-123.91 -313.64l-40.94 94.18c-15.43,-17.96 -8.05,13.75 -38.46,-55.44 -23.13,-52.63 -5.07,-18.11 -10.92,-56.78l90.33 18.04zm389.67 341.53c16.98,-76.98 59.79,-138.73 31.98,-227.53 -33.36,-106.51 -138.43,-115.61 50.76,-144.9 -3.14,73.35 -18.47,154.23 11.29,224.21 32.39,76.12 59.76,52.91 67.11,111.06 -71.39,50.18 -65.9,41.65 -161.14,37.15zm492.54 -290.83c30.17,150.89 -76.29,211.87 -206.07,224.18 37.74,-293.24 -59.12,-207.97 -72.91,-348.39 136.78,-31.04 253.55,-2.98 278.98,124.22zm-1232.72 -100.43l120.24 18.58 -87.38 102.98 -32.86 -121.56zm-18.59 -7.26c-33.87,43.11 -4.77,42.81 -70.83,20.95 39.9,-25.07 -60.65,-41.5 70.83,-20.95zm-295.41 308.83c-7.06,-90.54 31.37,-60.02 60.7,-143.4 36.18,-102.85 -7.37,-108.49 3.59,-197.37 71.26,-4.5 84.13,-2.58 132.3,31.94 -84.37,236.78 -70.46,-27.28 -54.12,327.76l-142.47 -18.93zm-134.85 -38.01c-356.57,15.47 -252.33,-468.35 66.25,-333.45 -21.36,92.69 -53.28,61.89 -74.14,156.7 -18.32,83.33 7.76,100.72 7.89,176.75zm1557.13 182.25c50.81,-30.94 21.77,-18.44 52.26,-38.95 39.22,-26.38 14.25,-7.36 52.72,-30.25 67.5,-40.16 37.11,12.28 73.99,-83.58 -49.24,4.67 -11.74,18.35 -35.43,-7.02 113.51,-183.44 -5.36,-403.24 -210.83,-391.44 -39.49,2.27 -213.32,87.89 -400.6,98.59l-491.51 -29.88c-216.53,-41.31 -66.8,25.51 -283.34,-51.77 -112.09,-40 -6.66,27.24 -279.13,-59.26 -343.54,-109.07 -473.8,458.3 -75.66,475.31 109.24,4.67 45.14,-24.39 146.63,20.16 217.94,95.66 127.88,-5.51 253.49,40.36 70.91,25.89 27.78,35.36 123.9,44.42 94.59,8.93 80.44,0.52 174.09,20.22 106.02,22.29 56.11,10.78 151.35,-1.65 115.95,-15.13 105.58,45.73 265.51,4.45 131.21,-33.87 150.42,29.7 266.09,-21.7 161.63,-71.83 18.43,-33.36 275.99,-65.25 -36.76,34.89 -37.03,29.87 -59.5,77.24z"/>
  <path class="fil11" d="M2131.26 5745.76c130.59,21.59 172.1,68.44 184.78,208.39 -134.2,-13 -179.33,-69.43 -184.78,-208.39zm255.22 187.8c1.8,-123.25 11.54,-205 134.37,-242.32 52.78,122.65 -16.19,214.93 -134.37,242.32zm-75.11 -480.23c18.34,31.13 15.09,1.4 17.83,51.61 1.78,32.61 -6.74,25.91 -5,61.94 2.44,50.92 19.84,76.48 36.86,111.37l-70.31 7.65c-24.37,-163.94 -59.03,-141.98 20.63,-232.57zm40.37 161.75c-0.67,-132.38 22.99,-218.63 143.96,-235.25 12.29,137.46 -16.73,217.99 -143.96,235.25zm-283.52 -184.16c116.96,22.35 185.11,84.52 178.8,214.84 -129.24,-9.04 -171.24,-81.44 -178.8,-214.84zm382.57 -218.6c-28.88,60.79 -55.76,89.26 -136.85,99.03l-0.14 -91.52c-5.35,4.79 -12.71,4 -16.72,13.58 -4.05,9.68 -12.49,9.22 -17.93,12.33l-39.64 19.9 -5.26 50.99c-130.12,-20.38 -163.12,-97.87 -157.84,-233.68 87.1,20.88 59.63,12.13 122.47,72.97 35.1,33.97 8.42,10.09 39.32,34.14 4.47,-56.2 -9.19,-27.5 31.26,-54.52 66.27,23.55 26.64,-16.84 41.9,58.94 46.3,-41.62 47.09,-68.04 104.05,-93.38 27.78,-29.95 -42.51,-31.59 63.54,-26.51 8.02,26.61 14.03,34.41 9.62,68.16 -11.77,90.1 -17.26,49.97 -37.79,69.58zm-382.8 -430.98c125.04,28.66 158.86,83.61 164.48,224.63 -145.06,-16.08 -159.34,-89.45 -164.48,-224.63zm236.7 217.47l-16.16 72.6 -56.36 -20.67c84.29,-116.39 -43.15,-106.87 41.63,-230.35 51.95,46.21 65.21,-61.26 37.69,80.09 54.98,-55.54 72,-111.74 164.85,-126.02 12.65,126.95 -33.92,235.95 -171.64,224.34zm-62.01 -186.34c-37.6,-31.52 23.86,26.61 -31.93,-27.25 -39.84,-38.46 -2.69,-2.72 -37.72,-41.32 72.82,24.78 53.59,-9.48 69.65,68.57zm150.12 -428.96l21.41 58.74 100.01 -8.18 -1.58 163.41 -20.56 -2.73 -32.01 27.61c-39.2,43.63 -58.06,67.25 -133.12,80.9l-7.7 -43.09c-18.89,-17.97 -18.69,-17.37 -39.97,-45.6 -5.24,-6.94 -19.52,-23.75 -21.86,-34.16 -2.34,-10.35 -6.61,-12.23 -10.41,-18.05l17.94 138.63c-126.57,-7.54 -163.35,-93.09 -167.07,-229.22 102.96,17.09 71.11,37.76 139.8,68.68 47.57,-39.21 39.78,-48.38 61.02,-68.37l70.6 -46.8c-24.59,-6.02 -106.63,31.56 -84.96,-134.92 7.8,-59.96 25.04,-81.76 68.92,-115.8 66.34,59.78 58.13,88.65 39.53,208.96zm53.17 2009.76l-29.73 -134.45c10.98,120.37 11.45,40.66 -21.07,70.09 -119.31,-6.5 -179.11,-57.08 -196.03,-177.45 87.16,4.34 122.33,22.65 179.65,77.02 -10.37,-183.6 0.66,-152.54 58.27,-176.94 20.82,93.8 -28.78,110.83 51.02,217.98 -29.57,-158.85 -9.73,-248 101.44,-312.13 -49.17,-27.86 -8.05,-6.03 -41.03,-71.1 97.21,9.25 14.84,-20.31 91.21,37.15l-65.44 -62.74c26.26,-120.57 63.3,-234.15 -89.48,-240.54 86.21,-86.44 80.58,-169.53 63.62,-297.49 -34.55,-15.83 17.11,6.09 -43.21,-14.23 -20.56,-6.93 -30.81,-10.29 -37.07,-13.35 70.31,-54.26 74.27,-163.63 68.69,-272.22 -56.06,-13.36 -42.93,-25.43 -83.35,-0.2l18.57 -26.06c69.05,-102.74 114.55,-227.44 -4.07,-302.65 44.12,-42.92 33.23,-25.09 44.67,-96.49 22.9,-29.61 43.27,-79.2 25.08,-137.36 -25.22,-80.69 -27.1,-34.2 -94.63,-65.78 53.02,-130.15 5.01,-237.13 -68.88,-303.28 -194.66,62.44 -149.26,223.86 -106.15,407.85 -64.89,-55.22 -86.09,-93 -212.92,-90.75 -33.41,122.75 -14.81,215.1 67.22,281.7 -99.1,83.44 97.02,-50.84 -45.67,20.06 -137.31,68.22 -42.33,249.04 11.23,306.91 -124.5,2.73 -64.69,203.97 -17.33,267.89 97.17,131.15 188.03,34.13 182.78,186.33 -9.65,-24.38 -103.96,-117.83 -232.3,-91.2 -24.27,129.24 21.34,242.69 100.31,277.88 -72.53,85.89 -71.5,124.81 -12.55,237.68 55.11,105.53 94.82,89.79 231.25,124.24l36.02 119.06c-122.65,-42.33 -97.13,-54.53 -247.09,-39.38 -7.27,228 125.31,267.34 316.98,293.96z"/>
  <path class="fil12" d="M3413.89 4561.91c6.48,109.39 32.41,186.99 36.7,292.29 4.33,106.26 -8.68,211.51 -10.93,317.35 89.9,22.17 204.1,28.74 308.37,53.89 78.28,18.88 157.68,65.56 236.3,87.74 15.65,-155.2 38.27,-608.78 -41.13,-707.96 -127.49,-159.26 -386.02,-158.76 -529.31,-43.31z"/>
  <path class="fil13" d="M4184.65 4529.26l-125.33 121.56 -7.67 644.8c120.1,-10.15 158.85,-76.82 302.78,-72.15 36.44,-36.69 33.2,-27.07 102.87,-37.94 44.15,-6.89 91.38,-9.38 136.91,-15.24 -1.01,-114.63 -15.34,-218.72 -9.65,-336.17 5.45,-112.44 36.94,-201.72 34.32,-303.75l-3.33 7.28c-203.75,-43.91 -221.73,-78.28 -430.91,-8.38z"/>
  <path class="fil0" d="M4285.18 5966.17l-24 -7.24c-104.99,92.81 -370.91,33.37 -495,29.02 58.54,82.45 75.94,61.97 124.28,137.53 110.33,172.45 40.7,245.67 50.05,352.52 30.78,352.1 22.43,265.99 11,639.6 -4.4,144.03 13.07,267.01 14.63,412.62l115.82 -3.18c58.82,-249.87 -13.86,-1160.75 33.03,-1307.78 26.98,-84.59 138.9,-213.14 229.48,-233.25 -23,-23.87 40.71,-19.98 -59.3,-19.83z"/>
  <path class="fil14" d="M4274.9 4271.04l150.17 -56.81c71.54,64.34 139.9,166.41 171,247.79l-258.87 -48.26 -62.29 -142.71zm-559.8 -392.56l103.39 -19.26c-7.92,13.03 1.63,38.99 -71.37,59.65 -39.02,11.05 -79.6,-19.73 -129.26,35.33l148.7 13.02c-6.71,50.06 -10.97,34.84 -60.96,81.14 -37.4,34.64 -43.25,39.2 -71,78.69l-81.13 1.39 134.91 37.81c18.61,-57.13 114.07,-109.07 161.43,-164.39l60.5 -58.46c2.96,-9.85 9.23,-10.3 13.98,-15.32l-101.95 -6.82c53.35,-91.24 351.09,-53.24 412.99,-3.56l-112.7 13.4 70.91 73.37c68.61,42.06 134.22,86.12 159.19,168.4l-115.28 8.92 -90.29 -155.84c-43.18,22.49 -55.07,-59.97 -22.82,53.9l40.85 131.52 -103.01 9.88 -32.79 -30.09 -38.58 29.11 -107.65 -13.48c23.72,-92.35 44.72,-88.32 61.2,-128.41 20.34,-49.44 6.7,-5.16 1.09,-33.58 68.03,-81.19 52.91,7.28 185.95,-48.49 -29.5,-58.72 0.57,-39.84 -77.59,-51.3 -1.2,-0.18 -94.89,0.81 -108.47,0.17l-44.7 113.87c-28.36,11.48 -15.67,-3.69 -46.23,53.38 -14,26.14 -20.95,43.47 -36.37,77.15l-94.25 -13.12c-60.11,14.14 -35.45,15.65 -55.86,44.5l104.59 42.43 -27.58 117.19c24.41,53.72 -5.01,16.49 51.97,34.59 48.94,-197.98 36.96,-104.47 185.85,-146.43l46.73 40.5 41.41 -40.5 125.79 3.6 40.63 59.24c38.44,45.39 81.88,107.57 6.25,173.47l-58.9 24.21c209.17,-69.9 227.16,-35.53 430.91,8.38l0.16 -59.42c3.78,1.36 10.08,-4.84 11.93,0.04l33.52 14.76c5.2,2.86 14.36,9.66 21.41,14.67 -37.76,-146.46 -112.81,-196.68 -184.22,-318.5 73.34,-46.15 78.89,-38.63 118.1,-95.85 -55.69,11.28 -16.81,17.63 -37.77,-19.74l-130.61 55.86c-54.24,-32.95 -155.78,-106.65 -160.44,-168.78l151.53 -3.53 -37.01 -23.58c-81.28,-27.51 -126.69,-8.05 -142.52,-21.16 4.18,-34.64 -93.54,-52.45 81.56,-33.02 -104.04,-80.72 -496.59,-99.88 -626.1,-0.91z"/>
  <path class="fil15" d="M2508.95 7747.24l80.38 27.99c9.53,-294.03 94.51,-250.06 130.05,-467.98 -65.54,-38.76 -36.56,3.16 -72.07,-84.81 -36.73,-17.29 -87.56,-70.53 -115.38,-94.21 -27.4,-23.32 -38.12,-29.31 -68.48,-56.89l-70.93 -79.32c-75.08,21.36 -30.65,-8.7 -33,-12.4l-64.26 0.97c36.87,78.81 37.97,149.99 15.61,238.08l-201.38 9.75c109.23,203.75 377.41,465.26 399.46,518.83z"/>
  <path class="fil15" d="M5350.6 7273.93c-18.91,112.83 35.56,177.63 69.82,252.01 52.85,114.72 35.19,134.57 43.5,265.11 86.56,-60.43 378.44,-365.53 416.21,-487.24l-7.56 -45.39c-75.22,-2 -100.77,17.3 -128.37,-45.33l-13.58 -160.48c-14.72,-84.81 1.78,-42.25 -36.35,-56.56 -94.7,58.33 -325.46,272.14 -343.66,277.87z"/>
  <path class="fil16" d="M3879.11 6496.74l6.26 1033.9c-140.28,-4.74 -291.15,-24.9 -421.65,-61.76l8.8 -166.76c-48.95,90.61 -40.75,110.6 -9.25,214.61l-95.72 -12.21c152.5,84.43 517.36,109.73 724.65,104.09 130.97,-3.56 492.26,-49.03 621.02,-104.28 99.24,-42.57 25.93,-0.75 60.59,-43.89 -71.2,6.15 -70.01,25.86 -100.15,30.13 -75.11,10.64 -45.09,54.27 -81.17,-28.2 -115.96,40.37 -297.6,64.11 -426.26,70.13l16.29 -1323.52c-99.26,187.43 -15.2,80.99 -27.57,259.22 -3.92,56.4 -19.42,96.89 -21.55,167.59l14.49 944.61 -249.6 -7.78c47.99,-133.52 2.21,-375.04 14.26,-538.8 6.98,-94.9 12.24,-176.71 12.29,-272.32 0.05,-102.57 4.98,-184.66 -45.71,-264.74z"/>
  <path class="fil17" d="M5605.09 5735.01c-0.19,-90.18 57.04,-175.15 120.83,-205.28 33.16,60.69 95.78,200.8 120.51,263.77 -99.37,-5.78 -168,-2.94 -241.35,-58.49zm249.3 -197.8c33.41,16 51.64,28.86 68.95,64.32 53.28,109.13 -8.51,137.37 -8.87,137.95 -31.67,-18.56 -27.76,0.24 -64.85,-64.5 -19.72,-34.41 -30.12,-62.23 -41.38,-92.87 -31.96,-40.11 -1.75,39.83 -26.83,-41.94 -15.98,-52.09 1.58,-22.63 7.38,-40.18 88.37,-3.19 35.14,-5.73 65.61,37.21zm-292.07 -328.17l-17.2 76.95 34.07 113.84c-104.22,56.84 -134.45,-60.59 -138.59,-68.22 -1.96,-3.59 -4.03,-11.2 -7.94,-15.47 -99.44,7.98 -46.59,0.31 -95.61,41.8 93.83,0.24 103.85,8.12 137.4,62.84 -23.48,69.75 -0.06,32.45 -50.92,53.96 -1.69,5.38 -4.04,9 -4.75,16.22 -0.62,6.19 -3.83,12.14 -4.63,13.72 -9.07,17.95 -6.65,13.51 -12.6,17.16 80.49,-54.85 10.7,-29.25 93.94,-46.96 37.93,67.06 55.29,142.33 46.31,227.98 -76.63,72.73 87.44,104.76 100.22,113.75 79.59,33.35 197.85,39.98 293.38,21.6 148.27,-212.26 5.94,-362.37 -194.71,-409.86l-146.96 132.17 36.83 -230.36 61.03 1.44c130.89,-14.24 42.91,4.52 76.12,-40.33l-61.83 -9.36 -68.76 2.33c-28.88,-89.04 -2.58,-8.31 1.26,-64.1 0.51,-7.39 8.48,-52.12 6.91,-58.77 -17.94,-76.18 49.67,4.6 -28.55,-38.53 -45.92,-25.31 -7.01,-13.99 -79.23,-16.17l24.81 102.37z"/>
  <path class="fil18" d="M2506.61 3699.98l73.24 5.11 -34.07 -106.69 -5.04 13.06c-57.53,-45.31 -66.64,-66.86 -108.17,-144.53l128.66 70.98c30.03,26.4 10.89,7.5 33.15,39.58 34.52,27.19 44.55,41.74 112.45,38.56l12.78 -83.26 -108.54 -222.1c60.46,48.61 58.39,32.78 110.14,123.03 33.55,60.12 37.75,77.49 111.85,77.24 5.73,-89.3 -60.65,-131.38 -113.08,-196.54 -50.54,-62.78 -81.67,-133.28 -157.24,-155.7 -85.46,55.54 -85.26,35.33 -52.52,130.61 20.91,60.87 51.87,98.95 73.54,164.63 -157.97,-35.2 -166.35,-210.77 -297.11,-65.15 31.59,123.58 169.29,198.09 219.95,311.17z"/>
  <path class="fil19" d="M4063.87 5601.23l110.13 13.58c-21.04,86.15 -47.45,146.01 -114.72,197.32l4.59 -210.9zm-65.66 -3.57l-13.78 215.23c-56.93,-42.19 -90.61,-128.1 -104.99,-201.61l118.77 -13.63zm0 0l-25.02 -67.86 -148.01 7 43.61 76.8c-51.98,94.07 14.23,-1.88 -57.42,40.68 20.66,52.64 52.68,103.75 74.78,174.6l-100.61 -12.07 36.13 115.73c25.84,-25.13 -37.38,-16.15 69.15,-39.51l318.51 5.39c-18.69,13.27 21.35,38.66 -159.16,41.42 -70.33,1.08 -139.69,-7.35 -209.48,-13.86 37.77,32.96 2.21,14.22 61.05,33.16 76.19,24.53 276.81,-2.08 344.84,-14.74 16.06,-55.2 -20.27,-65.1 -42.17,-79.06l55.03 -43.6 -99.78 6.13 91.03 -187.85c-23.59,-2.63 -46.55,10.07 -72.71,-9.85l63.23 -112.63 -185.13 23.44c18.19,31.74 14.85,39.14 14.22,44.31 -63.05,40.17 -0.51,32.37 -72.09,12.38z"/>
  <path class="fil18" d="M5286.01 3144.86c190.75,41.03 122.46,240.03 -47,72.6l47 -72.6zm-236.77 251.38c6.41,2.81 -4.17,74.29 87.78,-30.07 65.03,-73.79 -6.29,-45.69 92.18,-66.65 38.46,121.94 -34.58,267.9 107.28,268.86l5.14 -204.14c251.3,-7.87 193.28,-237.09 -76.56,-332.05 -18.84,14.83 -14.46,8.24 -33.95,30.8l-151.52 228.38c-24.56,36.54 -45.38,57.96 -30.35,104.86z"/>
  <path class="fil19" d="M4354.43 5223.47c78.82,15.57 224.62,-23.99 296.28,-52.39 -4.24,16.97 -14.22,65.65 -14.1,67.44 4.3,-5.49 16.98,-27.07 19.97,-30.67 16.82,-20.23 -1.56,-8.76 37.65,-34.51 3.33,93.02 -30.7,13.42 24.76,100.8l-54.25 54.92 150.81 15.03 -93.46 -67.35 128.52 39.19c-47.06,-46.06 3.8,-10.49 -63.85,-45.35 -31.96,-16.47 -33.83,-12.14 -62.41,-22.89l54.3 -296.94 -75.96 -25.19c6.61,89.48 10.13,114.25 -24.17,186.24 -18.81,-19.93 -25.89,2.79 -36.72,-69.74 -4.89,-32.7 0.59,-64.25 3.81,-96.58 -95.06,-41.32 -23.93,26.56 -32.93,-45.84 -10.45,-84.07 -55.48,7.73 35.87,-30.46 -12.15,-77.57 -10.83,-121.17 29.96,-179.19 38.63,68.8 36.52,110.99 22.6,200.4l66.27 -31.62c46.46,70.17 129.94,82.06 223.26,43.13 51.34,-21.42 26.94,2.25 45.98,-37.81l-251.86 10.52 -55.42 -321.57c-21.45,35.27 -21.77,79.84 -68.57,114.15 -17.77,-73.06 15.72,-76.52 -41.88,-136.85 2.62,102.03 -28.87,191.31 -34.32,303.75 -5.69,117.45 8.64,221.54 9.65,336.17 -45.53,5.86 -92.76,8.35 -136.91,15.24 -69.67,10.87 -66.43,1.25 -102.87,37.94z"/>
  <path class="fil18" d="M3480.01 2824.99c-45.22,-19.5 -44.07,-22.19 -108.65,-20.37l9.11 139.09c3.07,94.7 14.35,246.59 83.05,278.24 55.8,-34.4 42.56,-26.75 27.99,-108.65 -12.1,-68.04 -21.59,-74.59 -25.91,-143.75 52.79,31.75 70.24,60.31 114.67,114.81 59.91,73.49 53.42,94.34 156.94,93.3 9.64,-80.94 -35.98,-365.46 -64.21,-428.59l-69.39 1.11 33.17 244.47c-60.63,-32 -124.35,-100.27 -156.76,-169.66z"/>
  <path class="fil20" d="M3024.8 4941.58c-7.1,121.52 22.78,302.29 83.83,387.46l226.03 -79.5 -58.52 -312.86 -251.35 4.9z"/>
  <path class="fil18" d="M4597.61 3155.97l14.31 -143.95c-66.28,-35.3 -50.65,-10.58 -91.12,-55.59 -85.89,14.64 -49.2,11.89 -73.42,34.36 40.72,106.06 64.34,-2.47 73.05,104.74 -286.06,172.54 -192.33,-470.5 22.04,-212.76l93.65 19.34 -34.01 -83.45c-82.5,-144.45 -352.81,-78.26 -361.98,151.15 -8.8,220.28 236.06,301.68 357.49,186.16z"/>
  <path class="fil18" d="M4658.84 3249.24c82.94,26.71 242.22,118.13 305.56,97.67 7.13,-153.43 -104.78,-36.72 -182,-167.58 33.74,-123.01 80.61,-41.02 157.41,-26.64 115.07,21.54 51.94,3.67 83.94,-15.26 -70.93,-155.21 -153.69,14.16 -161.75,-172.91 117.8,-34.3 133.34,85.34 236.41,26.27 -17.04,-85 -179.8,-131.63 -273.26,-143.53l-166.31 401.98z"/>
  <path class="fil21" d="M4850.6 5315.94l113.45 -6.95c35.04,-130.19 70.89,-216.55 65.01,-370.86l-250.42 12.64 -54.3 296.94c28.58,10.75 30.45,6.42 62.41,22.89 67.64,34.86 16.79,-0.7 63.85,45.35z"/>
  <path class="fil22" d="M5620.67 6013.12c33.19,53.95 108.46,217.24 130.4,266.91 -110.46,5.24 -155.26,-17.89 -253.89,-40.66 7.57,-101.01 56.29,-177.89 123.49,-226.24zm-414.13 78c20.83,-68.91 -11.51,-17.93 56.71,-62.78l182.63 -110.15 -0.52 251.84c-82.39,1.35 -159.27,-39.42 -238.82,-78.91zm144.48 -167.69c-48.62,5.78 -103.76,45.47 -148.91,80.13 -50.04,42.91 65.57,59.71 -66.13,34.33l-44.86 -68.45 -6.42 114.71c92.07,36.89 110.91,87.16 195.2,85.76 111.12,-10.83 99.22,-0.48 141.17,88.79 32.43,0.63 64.19,-2.28 96.04,5.07 69.81,16.11 19.41,0.48 54.66,20.41 6.66,3.77 10.91,7.93 16.78,11.84 6.1,4.06 11.43,10.17 16.29,13.79 5,3.72 11.08,9.58 16.24,14.78l16.67 -7.8c90.62,-5.58 123.24,15 205.79,-16.19l-51.38 -41.7c-32.13,-31.04 -50.06,52.44 -28.26,-45.32l-63.8 -143.51c-57.53,-27.37 -33.19,24.93 -33.52,-54.21 -0.06,-13.85 23.88,-61.2 25.72,-77.05l-87.24 21.85c-9.11,92.11 31.59,5.76 -25.87,88.46 -228.57,-36.11 -2.8,-34.28 -108.64,-185.92l-22.33 -25.5 -42.46 -5.28 5.54 89.05 -60.26 1.96z"/>
  <path class="fil21" d="M4729.34 4553.07l55.42 321.57 251.86 -10.52c-17.41,-128.94 -24.71,-262.88 -88.39,-372.1l-218.9 61.06z"/>
  <path class="fil21" d="M3145.49 4438.32l210.64 65.76c30.66,-46.96 182.69,-294.53 190.18,-319.23l-142.3 -87.81c-88.69,53.54 -165.62,151.12 -217.53,228.72 -50.75,75.86 -36.33,35.22 -40.99,112.57z"/>
  <path class="fil21" d="M4682.58 4507.69l226.85 -70.43c-6.58,-84.38 -30.74,-105.12 -113.3,-202.44 -59.94,-70.64 -94.53,-114.74 -179.67,-141.48 -39.21,57.22 -44.76,49.7 -118.1,95.85 71.41,121.82 146.46,172.04 184.22,318.5z"/>
  <path class="fil21" d="M3068.85 4597.46l-46.35 269.98 265.97 -14.82 41.59 -285.42c-68.96,-31.45 -159.35,-70.18 -240.33,-64.25l-20.89 94.52z"/>
  <path class="fil21" d="M3152.46 5378.89c-14.94,116.31 180.87,298.38 252.16,342.27l127.47 -90.89c-12.04,-33.87 -138.02,-263.82 -175.52,-315.78l-204.11 64.4z"/>
  <path class="fil18" d="M2039.14 3616.2c-110.13,411.17 206.27,145.01 309.57,151.72 18.49,197.75 -93.71,56.7 -167.39,165.54 23.66,34.01 -22.89,17.14 51.04,41.61 140.57,46.53 244.89,-150.68 205.06,-234.4 -178.87,-176.64 -181.18,18.2 -355.63,3.19 14.87,-82.21 34.84,-98.67 126.23,-93.15l23.99 -72.56c-94.93,-18.28 -130.63,8.89 -192.87,38.04z"/>
  <path class="fil18" d="M3928.04 2990.69c80.24,-94.36 138.33,36.28 180.56,-83.69 -75.9,-21.43 -69.56,6.91 -162.72,-14.72l-34.81 -19.75 17.64 -78.54c249.8,2.59 186.56,-10.01 202.18,-54.57 -65.48,-52.2 -220.27,-28.95 -280.3,-11.8l-13.93 35.41c-17.35,81.77 -4.73,315.59 8.3,391.2 187.94,18.23 288.21,27.43 305.59,-58.69 -58.93,-37.28 -142.24,-17.15 -225.8,-20.83l3.29 -84.02z"/>
  <path class="fil21" d="M4815.55 5344.1l-150.81 -15.03c-7.21,108.08 -106.23,203.88 -151.86,305.9l123.73 80.32c88.6,-31.26 233.11,-195.52 275.59,-315.45 -34.07,-33.28 -91.48,-52.65 -96.66,-55.74z"/>
  <path class="fil23" d="M5013.04 7243.35c116.5,3.04 289.35,-78.41 345.23,-178.38 -106.91,-43.64 -289.31,-144.58 -352.8,-223.67 -42.5,125.25 -9.66,279.35 7.57,402.05z"/>
  <path class="fil18" d="M2852.95 3072.98c58.51,-21.63 68.94,-33.51 136.17,-8.8 12.37,84.81 -22.1,111.63 -106.34,110.37 -15.76,-31.41 -24.42,-52.44 -29.82,-101.57zm-109.4 -29.2c8.45,98.35 50.85,144.85 90.07,220.9 100.37,194.58 59.89,164.24 148.09,161.62 27.42,-63.3 -17.3,-77 -35.19,-178.72 157.14,-63.06 188.44,-119.71 81.94,-280.43 -162.69,-23.19 -164.94,34.81 -284.91,76.63z"/>
  <path class="fil21" d="M3753.2 5567.43c11.25,-82.69 -33.63,-205.02 -59.26,-297.28 -79.66,-14.98 -130.06,-16.25 -209.93,18.47 -35.03,15.22 -29.25,11.71 -48.56,27.44 43.28,112.83 102.92,213.29 175.98,291.26l141.77 -39.89z"/>
  <path class="fil21" d="M4449.38 5606.67c60.91,-89.42 146.32,-195.99 171.78,-319.84l-258.89 -16.33 -78.33 275.97c43.52,34.53 96.87,49.31 165.43,60.2z"/>
  <path class="fil0" d="M3294.42 8582.45c-0.13,-76.03 -26.21,-93.42 -7.89,-176.75 20.86,-94.81 52.78,-64.02 74.14,-156.7 -318.59,-134.9 -422.83,348.93 -66.25,333.45z"/>
  <path class="fil24" d="M4769.92 8643.5c129.78,-12.3 236.24,-73.29 206.07,-224.18 -25.43,-127.2 -142.2,-155.26 -278.98,-124.22 13.8,140.43 110.65,55.15 72.91,348.39z"/>
  <path class="fil18" d="M5845.22 3640.19c63.17,88.31 29.6,-5.4 125.41,62.84 -18.23,142.78 -208.48,51.77 -359.28,93.98 13.14,85.84 99,214.97 191.11,213.75 12.04,-100.19 -9.44,-39.72 -46.1,-148.37 470.91,10.51 255.69,-230.53 240.17,-241.5 -123.35,-87.13 -150.16,18.39 -151.31,19.3z"/>
  <path class="fil25" d="M4536.11 6954.81c-2.76,-98.63 -18.46,-188.7 -17.52,-298.07 0.44,-51.94 1.74,-95.28 5.9,-147.19 7.27,-90.54 -10.87,-42.41 24.01,-120.76 -272.67,55.52 -215.97,312.66 -148.35,686.41l49.83 37.42c11.89,-32.02 10.38,-5.41 14.85,-56.42l-43.15 -284.3c-17.36,-135.41 -48.58,-275.17 88.12,-302.16 -10.76,76.07 -22.77,161.84 -20.29,250.49l17.64 169.47c15.06,52.8 -7.68,-14.81 12.03,33.94 1.98,4.89 6.39,11.81 8.16,15.7 1.76,3.92 5.61,10.45 8.78,15.45z"/>
  <path class="fil25" d="M3531.1 6479.65c188.44,-9.11 91.71,312.42 75.98,432.27l-16.41 226.01c56.31,-47.98 29.39,13.69 54.68,-60.85 23.05,-67.93 -28.01,-105.72 36.35,-181.3 -6.51,-241.65 137.03,-442.53 -172.98,-505.61 22.82,48.15 15.2,24.68 22.39,89.47z"/>
  <path class="fil20" d="M3744.93 4380.58l27.58 -117.19 -104.59 -42.43c-85.64,-2.91 -83.52,27.42 -123.91,86.17 -49.61,72.18 -61.57,72.96 -87.11,157.59l257.18 -46.42 30.85 -37.73z"/>
  <path class="fil26" d="M3143.23 5944.59l27.01 -8.87c9.53,7.43 35.96,25.08 41.72,29.85 45.71,37.81 21.8,16.92 44.34,46.7 256.9,62.56 424.55,331.54 479.54,366.76 91.59,-165.93 -414.63,-397.28 -533.47,-485.96l-55.82 -38.89c-17.63,61.89 15.16,14.3 -34.78,69.35l31.45 21.06z"/>
  <path class="fil27" d="M4337.62 6258.81l-23.59 63.42c-2.75,93.27 -12.12,9.32 44.38,38.99 21.48,-100.92 147.86,-191.66 236.74,-247.87 118.74,-75.08 212.85,-125.15 312.36,-186.96l-6.91 64.51 44.15 -46.41c-16.88,-69.89 -8.27,-10.16 -39.6,-94.24 -124.78,87.59 -180.18,122.51 -299.83,187.53 -144.41,78.46 -172.17,141.77 -267.71,221.03z"/>
  <path class="fil20" d="M4337.19 4413.75l258.87 48.26c-31.09,-81.38 -99.45,-183.45 -171,-247.79l-150.17 56.81 62.29 142.71z"/>
  <path class="fil28" d="M5264.52 7306.22l118.32 290.43c-58.1,61.91 -64.11,44.67 -105.5,79.2 -26.8,22.37 -15.65,14.56 -35.93,37.8 4.04,1.77 10.61,-0.37 12.15,5.22 1.64,5.91 9.92,5.31 12.07,7.07l36.73 34.8c27.31,-66.09 -2.78,-65.74 104.07,-77.15l1.43 83.38c-26,38.59 9.99,9.04 -58.91,19.9 5.02,6.16 15.39,4.31 19.93,13.08 39.23,75.76 4.48,14.78 39.13,13.25 14.3,-0.63 42.56,-15.08 55.9,-22.16 -8.31,-130.54 9.35,-150.39 -43.5,-265.11 -34.26,-74.39 -88.72,-139.18 -69.82,-252.01 -72.78,42.02 -12.03,-70.1 -64.48,71.04 2.8,-4.37 8.63,-11.38 8.72,-12.91l-30.31 -25.84z"/>
  <path class="fil29" d="M5605.05 5960.67l87.24 -21.85c-1.84,15.85 -25.78,63.2 -25.72,77.05 0.33,79.14 -24,26.84 33.52,54.21 -7.9,-120.82 -10.54,-41.64 25.83,-65.33 81.39,54.3 113.91,93.6 109.23,221.87l-71.26 -13.02c-21.8,97.77 -3.87,14.28 28.26,45.32l51.38 41.7c-82.55,31.19 -115.17,10.6 -205.79,16.19 19.91,15.71 7.81,14.9 46.91,25.54 240.18,65.3 240.54,-219.48 172.46,-319.24 -36.9,-54.07 -244.43,-163.78 -252.07,-62.42z"/>
  <path class="fil19" d="M3937.92 4537.79l29.85 36.38 131.15 -0.69c33,-7.48 -4.84,8.65 35.8,-13.37 0.91,-0.49 48.07,-29.75 49.93,-30.85l58.9 -24.21c75.63,-65.9 32.2,-128.08 -6.25,-173.47l12.33 83.69 -191.02 119.13 12.26 -265.66 -41.41 40.5 -46.73 -40.5 8.76 251.28c-26.76,30.93 40.24,39 -53.58,17.78z"/>
  <path class="fil30" d="M5365.71 6677.68c86.33,47.66 76.3,107.31 211.06,129.64l11.98 -288.92c-98.89,27.7 -186.87,88.01 -223.04,159.28z"/>
  <polygon class="fil21" points="4073.2,5358.05 4056.08,5540.97 4241.21,5517.53 4278.13,5288.17 "/>
  <path class="fil30" d="M5661.13 4901.15c87.39,12.87 182.04,2.61 251.54,-25.02 -25.25,-61.96 -35.41,-55.09 -82.29,-105.3 -55.01,-58.91 -45.24,-77.85 -104.46,-109.76l-58.69 114.5c-18.1,59.92 -24.45,70.27 -6.1,125.58z"/>
  <path class="fil31" d="M5285.41 6962.04l91.44 38.06 -11.1 -78.78c-49.58,-124.34 -120.46,-176.91 -306.63,-154.98 11.68,61.68 47.22,81.66 98.27,123.67 41.3,33.98 72.01,56.25 128.02,72.03z"/>
  <path class="fil23" d="M5620.67 6013.12c-67.2,48.35 -115.92,125.24 -123.49,226.24 98.63,22.77 143.43,45.9 253.89,40.66 -21.94,-49.67 -97.21,-212.96 -130.4,-266.91z"/>
  <path class="fil21" d="M3796.9 4415.17c20.19,61.19 93.82,49.81 141.02,122.63 93.83,21.23 26.82,13.15 53.58,-17.78l-8.76 -251.28c-148.88,41.95 -136.91,-51.55 -185.85,146.43z"/>
  <path class="fil32" d="M2352.61 6899.42c34.1,7.43 19,-26.54 42.65,29.3 46.58,12.05 100.03,33.57 148.24,29.52 112.35,-9.43 76.93,-41.59 82.13,-91.93l-0.15 -1.29c-101.86,-50.11 -147.37,-98.69 -305.61,-70.63 -0.3,40.18 -5.46,10.92 4.19,42.09 1.5,4.86 26.72,59.12 28.55,62.94z"/>
  <path class="fil23" d="M5705.88 5281.91l61.83 9.36 119.77 22.01 -93.34 -209.19c-36.19,-70.62 -13.99,-32.23 -54.91,-64.43 -46.28,83.29 -97.48,102.08 -111.73,228.86l78.37 13.39z"/>
  <path class="fil33" d="M2488.08 6269.52l58.34 15.89c64.06,-84.34 152.99,-199.16 43.09,-328.03 -111.17,64.13 -131.01,153.28 -101.44,312.13z"/>
  <path class="fil33" d="M2515.62 6652.66c-7.98,-127.58 -166.94,-189.68 -298.99,-173.69 -1.09,138.84 152.09,220.35 298.99,173.69z"/>
  <path class="fil21" d="M3825.18 5536.8l148.01 -7 11.5 16.57c12.21,-155.18 13.57,-123.01 -36.73,-199.25l-182.04 -48.43 59.27 238.11z"/>
  <path class="fil23" d="M5389.13 4376.42l64.09 101.85c35.81,36.32 49.89,48.26 105.11,68.53 25.36,-25.21 10.87,-2.83 39.05,-49.14 10.29,-16.91 19.08,-37.5 26.46,-54.96 24.28,-57.59 34.28,-82.88 34.83,-144.72l-269.54 78.45z"/>
  <path class="fil23" d="M5605.09 5735.01c73.35,55.56 141.98,52.71 241.35,58.49 -24.74,-62.97 -87.35,-203.08 -120.51,-263.77 -63.79,30.13 -121.02,115.1 -120.83,205.28z"/>
  <path class="fil23" d="M5068.71 6489.15c54.67,48.79 142.14,116.05 226.58,111.69l28.28 -252.15c-59.22,16.49 -218.98,92.04 -254.86,140.46z"/>
  <path class="fil23" d="M5401.55 5521.85c-12.04,31.36 5.06,4.94 -20.06,37.52l-97.47 91.85c26.32,23.66 -3.3,10.72 59.7,34.43l198.09 17.22c8.97,-85.65 -8.39,-160.92 -46.31,-227.98 -83.24,17.71 -13.45,-7.89 -93.94,46.96z"/>
  <path class="fil32" d="M2805.88 6599.91l-70.06 98.82 -16.76 146.14c15.2,6.56 -20.81,49.29 80.62,9.94 92.39,-35.84 112.88,-171.1 98.54,-277.67 -64.13,7.81 -27.15,0.5 -92.34,22.76z"/>
  <path class="fil23" d="M5545.11 5286l17.2 -76.95 -100.68 -160.02c-40.46,40.81 -150.55,191.35 -159,246.41l242.47 -9.44z"/>
  <path class="fil23" d="M5314.09 4883.57l260.76 19.19c-3.7,-99.52 -33.04,-183.7 -79.35,-241.42 -51.52,35.43 -174.65,191.17 -181.41,222.22z"/>
  <path class="fil32" d="M2601.33 6597.72c57.11,9.83 96.99,-24.8 121.28,-75.79 37.61,-78.96 29.7,-163.58 -13.23,-229.46 -121.34,34.61 -141.87,163.2 -108.05,305.25z"/>
  <path class="fil34" d="M3429.27 8620.46l142.47 18.93c-16.33,-355.04 -30.25,-90.98 54.12,-327.76 -48.17,-34.52 -61.04,-36.44 -132.3,-31.94 -10.95,88.88 32.59,94.52 -3.59,197.37 -29.33,83.37 -67.77,52.86 -60.7,143.4z"/>
  <path class="fil23" d="M5206.54 6091.13c79.55,39.49 156.43,80.26 238.82,78.91l0.52 -251.84 -182.63 110.15c-68.22,44.86 -35.88,-6.12 -56.71,62.78z"/>
  <path class="fil18" d="M5405.26 3556.5l-18.52 84.13 78.7 -3.18c34.31,-51.88 208.93,-238.83 214.65,-292.23l-6.19 -29.91c-32.48,-10.47 44.98,-40.14 -46.05,-6.28 -55.05,20.48 -139.52,182.92 -222.59,247.46z"/>
  <polygon class="fil21" points="4237.3,4331.59 4196.67,4272.34 4070.88,4268.74 4058.62,4534.4 4249.63,4415.27 "/>
  <path class="fil35" d="M3345.67 7787.18c-58.75,-16.56 -71.81,5.28 -49.74,-64.64 43.78,16.11 27.53,-53.41 49.74,64.64zm-32.28 -134.13l51.27 9.19c-4.64,4.04 -10.48,12.05 -13.07,13.04 -1.96,0.75 -11,4.81 -12.97,5.4 -84.54,25.41 16.92,19 -25.23,-27.63zm-81.3 134.88c161.91,103.46 187.78,-10.62 189.81,-148.96 -66.87,-34.51 -52.87,-37.63 -146.22,-39.39 -21.66,54.47 -46.76,117.98 -43.59,188.35z"/>
  <path class="fil36" d="M4219.5 8370.28c60.04,310.13 51.77,108.79 -1.81,312 -22.26,84.43 114.52,42.69 150.2,31.39 -30.76,-72.11 -62.26,-73.66 -63.94,-171.89 -1.15,-66.85 27.07,-120.59 25.57,-168.81l-110.03 -2.69z"/>
  <path class="fil21" d="M3553.47 4128.44l81.13 -1.39c27.74,-39.49 33.6,-44.04 71,-78.69 50,-46.3 54.26,-31.08 60.96,-81.14l-148.7 -13.02c-48.01,40.06 -102.17,43.85 -145.69,104.95 25.09,16.98 62.9,45.63 81.3,69.29z"/>
  <path class="fil34" d="M4483.45 8710.16c95.24,4.49 89.76,13.03 161.14,-37.15 -7.35,-58.15 -34.72,-34.94 -67.11,-111.06 -29.76,-69.98 -14.43,-150.85 -11.29,-224.21 -189.19,29.29 -84.12,38.39 -50.76,144.9 27.81,88.8 -15,150.55 -31.98,227.53z"/>
  <path class="fil29" d="M5091.13 5969.44l44.86 68.45c131.7,25.39 16.08,8.58 66.13,-34.33l-56.87 -7.49c56.81,-115.93 71.59,-145.37 230.37,-138.91l-24.59 66.27 60.26 -1.96 -5.54 -89.05 42.46 5.28c-5.74,-6.42 6.42,-10.22 -31.66,-29.69 -61.01,-31.19 -121.97,-26.42 -182.61,-1.34 -71.04,29.39 -113.38,86.56 -142.81,162.77z"/>
  <path class="fil21" d="M4578.69 4073.6c-32.55,-77.02 -99.17,-80.12 -139.52,-116.45l-151.53 3.53c4.66,62.13 106.2,135.83 160.44,168.78l130.61 -55.86z"/>
  <path class="fil37" d="M3789.26 7730.29l84.2 -16.63c-80.86,145.69 -25.83,76.03 -3.63,193.29l-59.11 0.69 112.55 27.08c7.72,-0.04 15.39,-0.44 21.72,-0.53 6.22,-0.09 16.8,8.31 21.3,1.18l83.13 -42.79c-0.52,-0.76 -55.5,-109.6 -54.5,-13.14 -28.32,43.43 3.41,23.62 -51.95,32.26l-8.81 -165.65c33.58,-33.85 -51.9,-24.44 66.07,-28.53 -1.79,-0.67 -119.35,-37.3 -120.9,-37.56 -133.04,-22.85 -78.11,26.45 -90.06,50.34z"/>
  <path class="fil8" d="M2510.26 7020.85c77.3,42.09 145.85,182.52 266.15,230.56 2.23,-100.54 -95.36,-257.01 -105.54,-262.64 -20.84,-3.21 -103.33,21.59 -160.6,32.08z"/>
  <path class="fil8" d="M3882.48 8652.72c105.93,-34.07 107.74,-152.12 90.85,-201.15 -27.85,-80.85 -30.91,-47.02 -48.95,-63.92 -94.54,59.05 -126.59,168.1 -41.9,265.07z"/>
  <path class="fil38" d="M4698.76 7672.42c-22.89,48.3 15.47,45.31 -68.8,22.48l36.97 119.5c10.94,-1.67 16.98,-4.1 18.46,-0.35l93.52 -18.2 7.22 -49.85c2.72,-1.46 6.61,-7.7 7.61,-4.65 1.07,3.29 7.66,-2.48 9.15,-2.16 3.34,0.71 41.1,15.23 43.72,16.39l-5.83 -50.94c-1.5,-19.46 -6.09,-72.94 -12.87,-85.25 -44.26,-80.25 -8.63,-27.54 -65.61,-35.78l-30.91 93.96 -32.63 -5.16z"/>
  <path class="fil39" d="M3849.8 4001.87l56.94 -6.52 -6.12 63.7 44.7 -113.87c13.58,0.65 107.26,-0.34 108.47,-0.17 78.16,11.46 48.09,-7.43 77.59,51.3 -133.04,55.78 -117.92,-32.7 -185.95,48.49 53.24,25.96 32.46,-57.35 49.5,74.59 0.12,0.92 -4.09,95.7 -4.14,100.88l38.58 -29.11 32.79 30.09 -0.29 -174.36c8.21,5.17 20.31,1.04 23.61,10.99 16.02,48.23 4.81,0.41 38.84,21.97 -32.24,-113.87 -20.36,-31.41 22.82,-53.9l7.83 -28.74 38.55 7.26 -70.91 -73.37 -198.34 -3.02c-4.75,5.02 -11.01,5.47 -13.98,15.32l-60.5 58.46z"/>
  <path class="fil40" d="M2796.7 7552.74c56.25,28.63 17.84,19.91 99.6,5.93 6.67,86.32 -15.95,67.24 43.52,97.03l89.35 -158.62c-28.63,-33.12 -69.64,-26.69 -102.31,-51.57l-24.93 -26.31c-3.63,-3.62 -8.63,-10.92 -13.66,-15.69l-91.56 149.24z"/>
  <path class="fil33" d="M2311.48 4900.48l-6.8 98.32c137.72,11.61 184.3,-97.39 171.64,-224.34 -92.85,14.28 -109.87,70.48 -164.85,126.02z"/>
  <path class="fil33" d="M2239.51 5265.63l-1.3 -75.58c-30.91,-24.06 -4.22,-0.17 -39.32,-34.14 -62.84,-60.84 -35.37,-52.09 -122.47,-72.97 -5.28,135.81 27.72,213.3 157.84,233.68l5.26 -50.99z"/>
  <path class="fil41" d="M2369.3 4425.27l-70.6 46.8c-21.24,19.99 -13.45,29.16 -61.02,68.37l9.33 21.92c3.79,5.82 8.07,7.7 10.41,18.05 2.34,10.41 16.63,27.22 21.86,34.16 21.28,28.23 21.08,27.63 39.97,45.6 10.19,-77.69 18.8,-118.02 72.32,-147.23 40.67,-62 4.45,-54.75 104.34,-52.93l-3.83 134.73 20.56 2.73 1.58 -163.41 -100.01 8.18 -21.41 -58.74 -23.5 41.76z"/>
  <path class="fil35" d="M4423.52 7892.25c100.09,-53.76 59.17,-71.22 184.06,-32.2 -19.1,-84.6 -68.49,-164.91 -138.55,-191.1 -53.47,59.12 -55.87,137.57 -45.52,223.3z"/>
  <path class="fil32" d="M2369.3 4425.27l23.5 -41.76c18.6,-120.3 26.81,-149.17 -39.53,-208.96 -43.88,34.04 -61.12,55.84 -68.92,115.8 -21.67,166.48 60.36,128.9 84.96,134.92z"/>
  <path class="fil33" d="M2247.01 4562.36l-9.33 -21.92c-68.69,-30.92 -36.83,-51.59 -139.8,-68.68 3.72,136.13 40.5,221.69 167.07,229.22l-17.94 -138.63z"/>
  <path class="fil20" d="M4320.4 5861.06c102.44,9.87 212.28,-30.07 258.47,-111.13l-109.84 -57.83c-63.02,39.43 -126.8,103.3 -148.63,168.95z"/>
  <path class="fil32" d="M2386.48 5933.56c118.19,-27.4 187.16,-119.67 134.37,-242.32 -122.84,37.32 -132.58,119.07 -134.37,242.32z"/>
  <path class="fil20" d="M3733.69 5858.47c-21.31,-53.17 -99.21,-127.96 -144.49,-165.87 -54.64,14.68 -88.13,39.09 -121.42,64.51 50.28,55.63 146.92,119.75 265.91,101.36z"/>
  <path class="fil21" d="M3785.54 5816.8l100.61 12.07c-22.1,-70.85 -54.12,-121.96 -74.78,-174.6 -22.35,-27.05 -5.88,-8.2 -33.62,-28.33 -80.15,14.19 -67.21,8.27 -110.19,46.23 45.77,81.44 88.83,92.76 117.98,144.64z"/>
  <path class="fil21" d="M4259.44 5821.73c26.03,-56 88.8,-87.46 125.67,-149.57 -9.04,-8.57 17.47,-24.89 -68.55,-40.5 -57.04,-10.35 -32.25,-0.54 -65.87,8.35l-91.03 187.85 99.78 -6.13z"/>
  <path class="fil33" d="M2416.23 6258.81l-37.44 -30.34c-57.32,-54.37 -92.5,-72.68 -179.65,-77.02 16.91,120.37 76.72,170.95 196.03,177.45 32.52,-29.43 32.05,50.27 21.07,-70.09z"/>
  <path class="fil32" d="M2351.74 5615.08c127.22,-17.26 156.25,-97.78 143.96,-235.25 -120.97,16.62 -144.63,102.87 -143.96,235.25z"/>
  <path class="fil42" d="M3108.77 7700.11l-29.93 -45.06 77.26 -7.78 -27.76 -78.64c72.15,10.51 35.81,2.17 89.48,22.78l5.23 -24.95c-58.73,-42.8 -61.69,-49.26 -139.26,-50.9 -35.24,60.35 -63.59,103.13 -62.29,188.59 61.49,36.13 56.52,43.58 136.37,48.21 -33.54,-59.7 44.89,-14.99 -49.11,-52.24z"/>
  <path class="fil32" d="M2316.04 5954.15c-12.69,-139.95 -54.19,-186.8 -184.78,-208.39 5.45,138.96 50.58,195.39 184.78,208.39z"/>
  <path class="fil33" d="M2247.02 5645.76c6.31,-130.31 -61.83,-192.49 -178.8,-214.84 7.56,133.4 49.56,205.8 178.8,214.84z"/>
  <path class="fil32" d="M2232.47 5005.96c-5.62,-141.02 -39.44,-195.97 -164.48,-224.63 5.14,135.18 19.42,208.55 164.48,224.63z"/>
  <path class="fil28" d="M3810.72 7907.63l59.11 -0.69c-22.2,-117.26 -77.23,-47.6 3.63,-193.29l-84.2 16.63c-25.14,11.14 0.43,1.44 -76.37,-29.71l-16.52 201.87c10,-2.19 49.78,-30.7 54.91,-33.53 18.59,-10.26 13.94,-11.09 48.93,-21.45 24.49,59.8 7.96,21.61 10.51,60.16z"/>
  <path class="fil33" d="M2391.57 4512.94c-53.52,29.22 -62.13,69.54 -72.32,147.23l7.7 43.09c75.07,-13.65 93.92,-37.27 133.12,-80.9l15.02 -143.02 -83.52 33.6z"/>
  <path class="fil33" d="M2311.37 5194.47l2.43 25.35 0.14 91.52c81.09,-9.76 107.97,-38.24 136.85,-99.03l12.38 -114.17 -47.75 2.94c-56.96,25.34 -57.74,51.76 -104.05,93.38z"/>
  <path class="fil20" d="M3688.37 4166.25l35.4 10.2 94.25 13.12c15.42,-33.68 22.37,-51.01 36.37,-77.15 30.56,-57.07 17.87,-41.9 46.23,-53.38l6.12 -63.7 -56.94 6.52c-47.35,55.31 -142.81,107.26 -161.43,164.39z"/>
  <path class="fil43" d="M5633.2 6790.17c64.24,-25.2 30.7,15.33 73.56,-49.46 29.99,-45.33 44.56,-160.66 -43.68,-206.1 -47.41,65.48 -35.28,165.98 -29.88,255.57z"/>
  <path class="fil44" d="M3924.27 3928.08l198.34 3.02 112.7 -13.4c-61.89,-49.68 -359.64,-87.69 -412.99,3.56l101.95 6.82z"/>
  <path class="fil37" d="M5970.13 5266.77c27.81,-135.19 -23.71,-221.76 -134.34,-238.4 5.42,84.14 59.65,222.26 134.34,238.4z"/>
  <path class="fil20" d="M4147.15 4025.94l90.29 155.84 115.28 -8.92c-24.97,-82.28 -90.57,-126.34 -159.19,-168.4l-38.55 -7.26 -7.83 28.74z"/>
  <path class="fil2" d="M5700.09 6070.08l63.8 143.51 71.26 13.02c4.69,-128.26 -27.83,-167.56 -109.23,-221.87 -36.37,23.69 -33.73,-55.48 -25.83,65.33z"/>
  <path class="fil45" d="M5235.48 4824.54c85.4,-31.57 157.59,-93.18 182.89,-206.51 -135.74,19.27 -170.85,63.2 -182.89,206.51z"/>
  <path class="fil8" d="M4136.42 8661.92c94.42,-61.11 91.89,-179.57 3.78,-239.37 -47.93,84.54 -73.52,145.65 -3.78,239.37z"/>
  <path class="fil24" d="M4427.13 8647.45c62.22,-90.17 38.28,-157.13 -20.94,-225.94 -1,0.79 -58.38,-12.43 -49.46,119.99 4.79,71.15 19.29,85.46 70.41,105.96z"/>
  <path class="fil2" d="M5219.93 5233.3c64.09,-17.78 52.07,-12.78 98.73,-73.73 42.13,-55.04 52.7,-62.22 56.36,-140.1 -116.5,28.13 -159.96,78.06 -155.09,213.83z"/>
  <path class="fil45" d="M5916.3 4781.27c44.51,39.75 32.59,20.52 63.98,36.9l-2.21 -84.4c-43.98,-81.46 -51.07,-99.33 -173.52,-115.18 22.29,92.93 54.99,117.83 111.74,162.68z"/>
  <path class="fil2" d="M5808.22 5582.11c11.26,30.65 21.66,58.47 41.38,92.87 37.1,64.74 33.19,45.94 64.85,64.5 0.36,-0.59 62.16,-28.82 8.87,-137.95 -17.31,-35.46 -35.54,-48.32 -68.95,-64.32l-42.64 -12.99 -3.52 57.89z"/>
  <path class="fil26" d="M4000.22 7717.51c-117.97,4.09 -32.48,-5.32 -66.07,28.53l8.81 165.65c55.36,-8.64 23.63,11.17 51.95,-32.26 -39.74,-34.69 -23.27,55.3 -43.14,-70.56l120.91 33.76c1.8,-121.98 13.84,-37.38 24.12,-141.1 -50.23,17.43 -57.59,25.02 -96.47,47.71l-0.13 -31.74z"/>
  <path class="fil2" d="M5202.11 6003.57c45.16,-34.67 100.3,-74.35 148.91,-80.13l24.59 -66.27c-158.78,-6.45 -173.56,22.99 -230.37,138.91l56.87 7.49z"/>
  <path class="fil46" d="M5412.95 4227.51l-17.1 65.63 116.74 -11.52c67.33,-9.22 81.56,-9.87 123.95,-54.88 -106.65,-97.37 -138.69,-16.49 -223.59,0.77z"/>
  <path class="fil47" d="M3634.63 7820.67l-64.81 -35.87c-46.91,-21.09 -6.24,49.52 -28.65,-11.19 -2.1,-5.7 -8.91,-3.94 -12.94,-6.63l42.51 -16.36c53.24,-49.46 26.93,-32.41 32.5,-82.3l-69.73 35.71c-42.13,46.14 -68.84,77.71 -88.76,145.08l101.86 -21.09 78.09 64.46 9.93 -71.81z"/>
  <path class="fil2" d="M5059.02 6355.25c1.61,64.64 35.79,30.63 81.48,12.74 75.2,-18.33 110.06,-41.44 132.41,-113.23 -107.01,-2.11 -165.46,4.09 -213.89,100.48z"/>
  <path class="fil34" d="M4699.46 8601.19c62.28,-98.95 5.53,-179.52 -63.7,-225.65 -16.27,39.85 -27.68,79.04 -12.11,137.95 23.4,88.53 57.45,81.74 75.82,87.7z"/>
  <path class="fil26" d="M4251.57 7844.53c-8.74,-4.06 -19.09,-10.3 -23.83,-16.35 -3.33,-4.27 -10,-11.7 -12.69,-15.94 -29.5,-46.42 -29.74,-38.5 17.37,-30l2.72 -36.84 45.05 1.48c21.21,-33.12 3.19,-16.06 63.94,-0.94 -38.59,-55.42 -28.69,-77.04 -167.67,-40.93 -18.12,82.89 -7.44,127 5.72,200.13 84.11,-29.61 36.86,48.13 69.38,-60.61z"/>
  <path class="fil45" d="M5264.65 5484.22l-31.35 61.56c42.85,47.48 -16.8,17.21 60.44,19.01 52.19,-41.35 63.44,-75.56 129.78,-90.04 -16.04,-105.32 -2.47,-31.6 -32.77,-60.54 -77.08,14.13 -104.71,10.59 -126.1,70.01z"/>
  <path class="fil21" d="M3998.22 5597.66l-118.77 13.63c14.38,73.51 48.06,159.42 104.99,201.61l13.78 -215.23z"/>
  <path class="fil8" d="M3625.38 8592.35c40.84,-17.42 55.89,-8.44 76.44,-71.69 17.63,-54.22 4.6,-96.77 -5.21,-149.13 -97,45.2 -95.18,119.44 -71.23,220.81z"/>
  <path class="fil21" d="M4059.28 5812.13c67.27,-51.31 93.68,-111.18 114.72,-197.32l-110.13 -13.58 -4.59 210.9z"/>
  <path class="fil48" d="M5239.01 3217.46c169.46,167.43 237.75,-31.57 47,-72.6l-47 72.6z"/>
  <path class="fil34" d="M3357.28 8541.7c54.41,-24.71 50.23,-18.64 69.3,-76.97 20.47,-62.62 18,-71.46 -4.96,-129.5 -98.24,32.11 -88.13,114.18 -64.33,206.47z"/>
  <path class="fil49" d="M3821.67 5932.53l19.02 -6.56c69.8,6.51 139.15,14.94 209.48,13.86 180.51,-2.76 140.47,-28.15 159.16,-41.42l-318.51 -5.39c-106.54,23.36 -43.31,14.38 -69.15,39.51z"/>
  <path class="fil50" d="M2852.95 3072.98c5.4,49.13 14.06,70.17 29.82,101.57 84.24,1.26 118.71,-25.56 106.34,-110.37 -67.22,-24.72 -77.66,-12.83 -136.17,8.8z"/>
  <path class="fil51" d="M4232.42 7782.23c-47.11,-8.5 -46.87,-16.41 -17.37,30 2.69,4.24 9.36,11.67 12.69,15.94 4.74,6.05 15.09,12.3 23.83,16.35 80.99,22.68 2,44.22 112,47.97 -37.02,-100.95 -16.64,-52.7 -19.44,-146.57 -60.76,-15.12 -42.74,-32.18 -63.94,0.94l10.21 40.66 -57.98 -5.3z"/>
  <path class="fil52" d="M2304.69 4998.8l6.8 -98.32c27.52,-141.35 14.27,-33.88 -37.69,-80.09 -84.78,123.47 42.66,113.95 -41.63,230.35l56.36 20.67 16.16 -72.6z"/>
  <path class="fil53" d="M3928.04 2990.69c105.03,-1.2 160.13,19.84 217.99,-62.74 -45.74,-101.4 -114.25,-53.31 -234.97,-55.42l34.81 19.75c93.15,21.63 86.82,-6.71 162.72,14.72 -42.22,119.96 -100.32,-10.67 -180.56,83.69z"/>
  <path class="fil54" d="M3288.47 4852.62l-265.97 14.82 46.35 -269.98c-26.33,30.84 -6.19,-26.36 -33.56,55.85 -0.87,2.62 -13.71,68.04 -15.06,75.29 -17.16,91.63 -24.07,63.41 2.04,154.48 210.15,10.55 189.77,30.9 266.2,-30.46z"/>
  <path class="fil20" d="M3990.79 4220.27c0.06,-5.18 4.26,-99.96 4.14,-100.88 -17.04,-131.94 3.74,-48.63 -49.5,-74.59 5.61,28.43 19.25,-15.86 -1.09,33.58 -16.48,40.09 -37.48,36.06 -61.2,128.41l107.65 13.48z"/>
  <path class="fil3" d="M2361.06 5678.25c-17.02,-34.9 -34.42,-60.46 -36.86,-111.37 -1.74,-36.04 6.78,-29.33 5,-61.94 -2.74,-50.2 0.51,-20.48 -17.83,-51.61 -79.66,90.59 -45,68.63 -20.63,232.57l70.31 -7.65z"/>
  <path class="fil55" d="M4062.16 4221.25l103.01 -9.88 -40.85 -131.52c-34.03,-21.56 -22.82,26.26 -38.84,-21.97 -3.3,-9.94 -15.4,-5.82 -23.61,-10.99l0.29 174.36z"/>
  <path class="fil39" d="M3984.69 5546.37l44.59 -29.85 26.8 24.44 17.11 -182.92c-57.63,55.26 -40.05,-75.12 -44.07,50.69l-23.42 -21.99c-3.38,-2.8 -9.27,-7.98 -12.75,-10.74 -24.85,-19.65 -8.98,-9.89 -45,-28.89 50.31,76.24 48.94,44.07 36.73,199.25z"/>
  <path class="fil26" d="M5095.23 7436.95c28.53,17.9 108.69,59.84 -8.07,65.25 53.09,56.34 41.04,86.46 113.73,112.83 13.43,-110.41 -2.14,-39.5 -29.8,-111.31 -16.49,-42.82 -5.38,-24.21 -12.26,-51.29 -1.37,-5.39 -1.22,-12.15 -2.57,-17.12l-16.89 -38.57c-71.51,28.87 -17.77,7.68 -44.15,40.22z"/>
  <path class="fil56" d="M4929.99 7740.04c85.79,-55.18 13.65,-33.76 122.48,-62.57 34.4,-9.1 26.72,-3.27 48.53,-15.22 -32.53,-64.17 -18.01,-34.77 -66.26,-61.35 26.96,81.82 34.94,11.07 -0.1,61.24 -68.04,-44.71 -8.11,-3.88 -48.28,-39.94 -36.97,-33.19 5.91,-1.14 -40.15,-39.42l-16.22 157.26z"/>
  <path class="fil47" d="M4929.99 7740.04l16.22 -157.26c46.06,38.28 3.18,6.23 40.15,39.42 40.17,36.06 -19.77,-4.77 48.28,39.94 35.05,-50.17 27.06,20.58 0.1,-61.24 -20.86,-46.66 -48.5,-78.4 -116.26,-78.31l11.52 217.46z"/>
  <path class="fil57" d="M4648.55 4869.21l52.56 21.2c13.92,-89.41 16.03,-131.6 -22.6,-200.4 -40.8,58.03 -42.12,101.63 -29.96,179.19z"/>
  <path class="fil58" d="M5265.17 7264.12c100.18,-24.74 57.67,18.58 145.43,-108.77l30.57 -46.62c-43.87,18.28 -65.98,27.63 -107.48,56.54 -71.61,49.87 -34.34,7.51 -68.52,98.85z"/>
  <path class="fil59" d="M4702.68 4925.58l-57.07 19.92c-3.22,32.33 -8.7,63.88 -3.81,96.58 10.83,72.52 17.9,49.8 36.72,69.74 34.3,-71.99 30.77,-96.76 24.17,-186.24z"/>
  <path class="fil3" d="M2625.48 6865.03l0.15 1.29 62.8 92.42c34.24,-0.22 50.81,-25.78 13.16,-80.94 -29.6,-116.62 13.65,-55.52 -76.01,-74.32 -10.21,28 -10.04,3.15 -0.1,61.56z"/>
  <path class="fil44" d="M3378.69 5126.21c10.11,-33.99 24.87,-67 26.31,-105.09 4.35,-114.46 -2.76,-65.87 -46.22,-87.06 -29.68,67.94 -17.42,140.93 19.91,192.15z"/>
  <path class="fil34" d="M3694.42 8683.9l83.31 4.6c13,-29.61 24.32,-7.56 12.59,-72.12 -4.2,-23.07 -26.15,-55.73 -33.53,-67.36 -49.59,91.6 -33.93,15.23 -62.37,134.88z"/>
  <path class="fil60" d="M2641.15 7794.7c83.42,-19.15 73.4,-10.91 110.83,-74.13 -39.29,-24.17 -44.75,-32.08 -110.04,-43.31l-0.79 117.44z"/>
  <path class="fil44" d="M3376.09 4691.34c-32.69,45.21 -53.8,133.14 -17.31,191.02 85.2,-23.76 35.97,-134.76 17.31,-191.02z"/>
  <path class="fil61" d="M5302.37 7760.75l46.59 26.13c68.9,-10.85 32.91,18.69 58.91,-19.9l-1.43 -83.38c-106.85,11.41 -76.76,11.06 -104.07,77.15z"/>
  <path class="fil62" d="M5626.55 5079.23c56.39,-14.9 89.27,-53.88 106.95,-109.05l-100.55 -8.39 -6.41 117.44z"/>
  <path class="fil63" d="M5880.13 7303.81l64.54 -56.7c-51.52,-39.95 -101.42,-17.7 -200.48,-34.02 27.61,62.63 53.15,43.33 128.37,45.33l7.56 45.39z"/>
  <path class="fil64" d="M3108.77 7700.11c29.71,-39.19 1.06,-13.88 81.82,-24.3 8.23,-63.59 2.51,-37.87 27.23,-84.4 -53.67,-20.61 -17.33,-12.28 -89.48,-22.78l27.76 78.64 -77.26 7.78 29.93 45.06z"/>
  <path class="fil8" d="M3954.25 8703.5c78.97,31.53 48.7,28.35 131.04,2.72l-56.17 -91.01 -74.87 88.28z"/>
  <path class="fil65" d="M2238.21 5190.05l1.3 75.58 39.64 -19.9c5.44,-3.11 13.88,-2.65 17.93,-12.33 4.02,-9.58 11.38,-8.79 16.72,-13.58l-2.43 -25.35c-15.26,-75.78 24.37,-35.39 -41.9,-58.94 -40.46,27.02 -26.8,-1.69 -31.26,54.52z"/>
  <path class="fil66" d="M2540.75 3611.46c16.49,-56.99 -39.97,-58.46 53.63,-33.96 -22.25,-32.08 -3.11,-13.19 -33.15,-39.58l-128.66 -70.98c41.53,77.67 50.65,99.22 108.17,144.53z"/>
  <path class="fil66" d="M3380.47 2943.71l-9.11 -139.09c64.57,-1.81 63.43,0.88 108.65,20.37 -59.82,-78.03 -28.1,-65.44 -121.23,-41.11 -14.12,32.31 -20.9,22.88 -15.81,76.61 5.85,61.7 24.06,66.56 37.5,83.22z"/>
  <polygon class="fil8" points="3776.13,8440.46 3863.51,8337.48 3743.27,8318.9 "/>
  <path class="fil67" d="M2637.38 6775.61c68.19,-69.02 46.41,-88.66 86.38,-156.96 -97.26,63.99 -123.69,28.21 -86.38,156.96z"/>
  <path class="fil68" d="M2359.52 6979.61c2.35,3.7 -42.09,33.76 33,12.4l85.33 37.09 -82.58 -100.37c-23.65,-55.84 -8.55,-21.87 -42.65,-29.3l-2.77 61.63c2.65,4.23 6.35,12.43 9.68,18.56z"/>
  <path class="fil66" d="M2039.14 3616.2c62.24,-29.15 97.94,-56.32 192.87,-38.04l-23.99 72.56 54.19 -49.62c-77.68,-105.47 -147.05,-64.34 -223.06,15.11z"/>
  <path class="fil69" d="M3994.92 7879.43c-1,-96.46 53.98,12.38 54.5,13.14l3.56 -14.02 50.61 28.35 -14.06 -68.6 -16.83 4.34 -120.91 -33.76c19.87,125.85 3.39,35.86 43.14,70.56z"/>
  <path class="fil70" d="M2391.57 4512.94l83.52 -33.6 -15.02 143.02 32.01 -27.61 3.83 -134.73c-99.89,-1.82 -63.67,-9.07 -104.34,52.93z"/>
  <path class="fil36" d="M5567.26 5072.5l-1.08 -110.71 -81.54 3.7c17.11,55.63 29.59,72.87 82.62,107.01z"/>
  <path class="fil71" d="M4052.84 8462.81l40.94 -94.18 -90.33 -18.04c5.85,38.67 -12.21,4.15 10.92,56.78 30.41,69.19 23.03,37.48 38.46,55.44z"/>
  <path class="fil72" d="M3634.63 7820.67l-37.36 -157.06c-85.04,9.84 -33.81,-0.86 -63.77,40.43l69.73 -35.71c-5.57,49.89 20.74,32.84 -32.5,82.3l-42.51 16.36c4.03,2.68 10.84,0.93 12.94,6.63 22.42,60.71 -18.26,-9.9 28.65,11.19l64.81 35.87z"/>
  <path class="fil5" d="M3998.22 5597.66c71.57,20 9.04,27.8 72.09,-12.38 0.63,-5.17 3.97,-12.57 -14.22,-44.31l-26.8 -24.44 -44.59 29.85 -11.5 -16.57 25.02 67.86z"/>
  <path class="fil73" d="M2719.61 3532.8c-42.1,-140.97 -44.63,-62.31 1.61,-99.07 -51.75,-90.24 -49.68,-74.42 -110.14,-123.03l108.54 222.1z"/>
  <path class="fil74" d="M3143.23 5944.59c24.45,75.79 19.24,67.96 82.87,99.2l-19.24 -46.72 49.44 15.2c-22.54,-29.78 1.37,-8.89 -44.34,-46.7 -5.76,-4.77 -32.2,-22.43 -41.72,-29.85l-27.01 8.87z"/>
  <path class="fil73" d="M4597.61 3155.97c41.94,-64.37 41.52,-88.03 33.51,-165.18l-110.32 -34.36c40.47,45.01 24.84,20.29 91.12,55.59l-14.31 143.95z"/>
  <path class="fil75" d="M5087.16 7502.2c116.76,-5.41 36.6,-47.35 8.07,-65.25l-63.37 34.21c24.72,26.46 -1.5,23.04 55.3,31.04z"/>
  <path class="fil16" d="M5512.59 4281.62l-116.74 11.52 17.1 -65.63c-49.67,50.2 -31.13,7.58 -40.78,83.02 30,6.55 38.05,12.7 74.75,7.24 98.5,-14.65 44.91,-15.02 65.67,-36.15z"/>
  <path class="fil70" d="M2450.79 5212.31c20.52,-19.61 26.02,20.52 37.79,-69.58 4.41,-33.75 -1.61,-41.56 -9.62,-68.16 -106.04,-5.07 -35.76,-3.44 -63.54,26.51l47.75 -2.94 -12.38 114.17z"/>
  <path class="fil76" d="M5293.74 5564.79c-77.24,-1.8 -17.59,28.47 -60.44,-19.01l31.35 -61.56c-57.8,46.51 -81.69,49.22 -41.48,123.96 54.55,-7.51 41.21,-2.22 70.57,-43.39z"/>
  <path class="fil77" d="M4778.92 7795.86l95.61 -20.86c-12.64,-114.42 -7.85,-43.5 -33.75,-70.35l5.83 50.94c-2.62,-1.16 -40.37,-15.68 -43.72,-16.39 -1.5,-0.32 -8.08,5.45 -9.15,2.16 -1,-3.05 -4.89,3.19 -7.61,4.65l-7.22 49.85z"/>
  <path class="fil73" d="M2506.61 3699.98c33.61,32.62 -58.26,55.64 77.07,24.59 37.27,-63.14 2.18,-73.99 -37.91,-126.18l34.07 106.69 -73.24 -5.11z"/>
  <path class="fil78" d="M4358.41 6361.22c-56.5,-29.67 -47.13,54.28 -44.38,-38.99l23.59 -63.42c-24.5,29.51 -26.28,13.88 -43.38,60.09 -29.3,79.19 1.06,58.27 7.2,71.71 116.76,24.93 10.51,10.19 56.96,-29.39z"/>
  <path class="fil79" d="M5465.44 3637.46l-78.7 3.18 18.52 -84.13c-54.87,59.88 -57.22,34.95 -14.5,105.57 136.48,35.06 36.26,8.59 74.69,-24.61z"/>
  <polygon class="fil58" points="2480.52,6721.93 2583.9,6777.07 2568.05,6691.45 "/>
  <path class="fil4" d="M4629.96 7694.9c84.27,22.83 45.91,25.82 68.8,-22.48 -11.93,-38.26 -0.58,-21.17 -41.19,-41.83 -26.31,30 -25.33,4.25 -27.6,64.31z"/>
  <path class="fil80" d="M4052.98 7878.55c22.69,55.46 -34.52,25.9 38.98,50.01 28.29,-13.41 34.54,15.25 36.54,-35.48 3.36,-85.33 -19.64,-37.06 -38.96,-54.79l14.06 68.6 -50.61 -28.35z"/>
  <path class="fil79" d="M4542.46 2882.78c50.5,61.07 53.05,60.91 108.99,3.28 -30.74,-120.34 -6.3,-30.94 -49.35,-67.39l34.01 83.45 -93.65 -19.34z"/>
  <path class="fil81" d="M2520.85 6407.37c43.86,-22.79 35.67,23.52 44.11,-77.59 -91.93,20.33 -81.43,11.25 -44.11,77.59z"/>
  <path class="fil77" d="M5730.61 7052.61c3.5,-5.25 9.41,-18.87 10.81,-15.53 1.37,3.26 7.97,-11.88 9.65,-15.73 13.06,-29.83 8.7,-15.79 17.44,-50.57 -43.43,-9.98 -74.25,-36.79 -74.25,25.27 38.13,14.3 21.63,-28.26 36.35,56.56z"/>
  <path class="fil82" d="M5140.5 6368c-45.69,17.89 -79.87,51.89 -81.48,-12.74 -34.12,42.38 -38.47,-62.73 -27.99,70.47 51.11,-9.01 24.67,4.47 68.93,-19.54 34.8,-18.89 17.51,-14.67 40.54,-38.18z"/>
  <path class="fil56" d="M5808.22 5582.11l3.52 -57.89 42.64 12.99c-30.47,-42.94 22.76,-40.39 -65.61,-37.21 -5.8,17.55 -23.36,-11.91 -7.38,40.18 25.09,81.77 -5.12,1.82 26.83,41.94z"/>
  <path class="fil83" d="M3345.67 7787.18c-22.2,-118.05 -5.95,-48.53 -49.74,-64.64 -22.07,69.91 -9.01,48.08 49.74,64.64z"/>
  <path class="fil84" d="M3607.07 6911.93c-28.77,72.83 -47.63,164.93 3.08,239.34l71.54 -255.48c-64.35,75.57 -13.3,113.36 -36.35,181.3 -25.28,74.54 1.64,12.87 -54.68,60.85l16.41 -226.01z"/>
  <path class="fil85" d="M5285.41 6962.04c22.48,27.74 -9.55,16.48 48.88,44.9 64.93,31.57 10.01,4.11 62.87,11.57l-31.41 -97.19 11.1 78.78 -91.44 -38.06z"/>
  <path class="fil72" d="M5916.3 4781.27c29.17,55.29 -5.66,31.36 61,55.63 15.93,-26.23 23.26,14.96 19.68,-48.38 -6.29,-111.27 5.87,-4.65 -18.91,-54.75l2.21 84.4c-31.39,-16.38 -19.47,2.85 -63.98,-36.9z"/>
  <path class="fil56" d="M5388.17 8556.28c30.48,-22.25 45.63,-30.76 67.81,-54 39.95,-41.85 14.75,-14.02 40.36,-58.46 -24.72,20.39 -48.38,37.35 -65.59,55 -40.17,41.22 -18.76,19.46 -42.59,57.46z"/>
  <polygon class="fil64" points="4232.42,7782.23 4290.4,7787.53 4280.19,7746.87 4235.14,7745.39 "/>
  <path class="fil3" d="M3653.84 8332.59c66.06,21.86 36.96,22.16 70.83,-20.95 -131.48,-20.55 -30.93,-4.12 -70.83,20.95z"/>
  <path class="fil86" d="M4098.92 4573.48c-25.42,60.62 7.17,9.83 -39.6,77.35l125.33 -121.56c-1.87,1.1 -49.02,30.36 -49.93,30.85 -40.64,22.01 -2.8,5.88 -35.8,13.37z"/>
  <path class="fil87" d="M2242.68 4812.46c-16.05,-78.05 3.17,-43.79 -69.65,-68.57 35.03,38.6 -2.12,2.86 37.72,41.32 55.79,53.86 -5.67,-4.27 31.93,27.25z"/>
  <path class="fil88" d="M4824.41 5808.72c50.34,-32.93 83.78,-63.91 122.17,-110.54 -25.49,18.16 -40.98,26.31 -67.09,49.23 -4.78,4.19 -17.87,16.28 -22.22,20.81 -27.56,28.7 -15.06,17.39 -32.85,40.5z"/>
  <path class="fil82" d="M6433.56 2844.67l-77.65 -82.57c40.67,71.46 -8.17,43.95 77.65,82.57z"/>
  <path class="fil86" d="M2719.38 7307.25c-28.6,-34.33 -40.76,-48.15 -72.07,-84.81 35.52,87.97 6.54,46.06 72.07,84.81z"/>
  <path class="fil80" d="M3313.38 7653.05c42.15,46.63 -59.31,53.04 25.23,27.63 1.96,-0.59 11.01,-4.65 12.97,-5.4 2.59,-0.99 8.44,-9 13.07,-13.04l-51.27 -9.19z"/>
 </g>
</svg>
